<?xml version="1.0" encoding="UTF-8" standalone="no"?>
<svg
   xmlns:dc="http://purl.org/dc/elements/1.1/"
   xmlns:cc="http://creativecommons.org/ns#"
   xmlns:rdf="http://www.w3.org/1999/02/22-rdf-syntax-ns#"
   xmlns:svg="http://www.w3.org/2000/svg"
   xmlns="http://www.w3.org/2000/svg"
   viewBox="0 0 2829.3333 2717.3333"
   height="2717.3333"
   width="2829.3333"
   xml:space="preserve"
   id="svg2"
   version="1.1"><metadata
     id="metadata8"><rdf:RDF><cc:Work
         rdf:about=""><dc:format>image/svg+xml</dc:format><dc:type
           rdf:resource="http://purl.org/dc/dcmitype/StillImage" /></cc:Work></rdf:RDF></metadata><defs
     id="defs6"><clipPath
       id="clipPath18"
       clipPathUnits="userSpaceOnUse"><path
         id="path16"
         d="M 0,2038 H 2122 V 0 H 0 Z" /></clipPath><clipPath
       id="clipPath34"
       clipPathUnits="userSpaceOnUse"><path
         id="path32"
         d="m 1050,781.8 h 357.91 V 105.973 H 1050 Z" /></clipPath><clipPath
       id="clipPath50"
       clipPathUnits="userSpaceOnUse"><path
         id="path48"
         d="m 1224.48,260.007 h 147.45 v -33.809 h -147.45 z" /></clipPath><clipPath
       id="clipPath66"
       clipPathUnits="userSpaceOnUse"><path
         id="path64"
         d="m 1204.72,669.213 h 24.31 V 266.945 h -24.31 z" /></clipPath><clipPath
       id="clipPath82"
       clipPathUnits="userSpaceOnUse"><path
         id="path80"
         d="m 1204.95,228.17 h 82.76 v -81.733 h -82.76 z" /></clipPath><clipPath
       id="clipPath106"
       clipPathUnits="userSpaceOnUse"><path
         id="path104"
         d="m 1362.74,1147.75 h 303.4 V 363.992 h -303.4 z" /></clipPath><clipPath
       id="clipPath122"
       clipPathUnits="userSpaceOnUse"><path
         id="path120"
         d="m 1565.8,1004.21 h 90.95 V 558.235 h -90.95 z" /></clipPath><clipPath
       id="clipPath142"
       clipPathUnits="userSpaceOnUse"><path
         id="path140"
         d="M 708.561,737.227 H 918.048 V 354.81 H 708.561 Z" /></clipPath><clipPath
       id="clipPath158"
       clipPathUnits="userSpaceOnUse"><path
         id="path156"
         d="m 963.421,636.271 h 70.289 V 402.26 h -70.289 z" /></clipPath><clipPath
       id="clipPath174"
       clipPathUnits="userSpaceOnUse"><path
         id="path172"
         d="m 845.035,633.754 h 78.451 V 352.179 h -78.451 z" /></clipPath><clipPath
       id="clipPath198"
       clipPathUnits="userSpaceOnUse"><path
         id="path196"
         d="M 407.561,755.691 H 637.382 V 623.051 H 407.561 Z" /></clipPath><clipPath
       id="clipPath214"
       clipPathUnits="userSpaceOnUse"><path
         id="path212"
         d="M 389.609,1094.28 H 809.747 V 554.267 H 389.609 Z" /></clipPath><clipPath
       id="clipPath230"
       clipPathUnits="userSpaceOnUse"><path
         id="path228"
         d="M 466.843,736.771 H 686.951 V 568.747 H 466.843 Z" /></clipPath><clipPath
       id="clipPath246"
       clipPathUnits="userSpaceOnUse"><path
         id="path244"
         d="M 703.893,855.562 H 809.747 V 559.165 H 703.893 Z" /></clipPath><clipPath
       id="clipPath262"
       clipPathUnits="userSpaceOnUse"><path
         id="path260"
         d="m 439.617,885.668 h 133.13 v -23.481 h -133.13 z" /></clipPath><clipPath
       id="clipPath278"
       clipPathUnits="userSpaceOnUse"><path
         id="path276"
         d="M 351.842,843.081 H 713.077 V 591.171 H 351.842 Z" /></clipPath><clipPath
       id="clipPath302"
       clipPathUnits="userSpaceOnUse"><path
         id="path300"
         d="M 757.786,833.133 H 1053.61 V 70.0259 H 757.786 Z" /></clipPath><clipPath
       id="clipPath318"
       clipPathUnits="userSpaceOnUse"><path
         id="path316"
         d="m 898.356,232.028 h 125.584 v -51.8 H 898.356 Z" /></clipPath><clipPath
       id="clipPath334"
       clipPathUnits="userSpaceOnUse"><path
         id="path332"
         d="M 882.174,680.553 H 927.27 V 241.264 h -45.096 z" /></clipPath><clipPath
       id="clipPath350"
       clipPathUnits="userSpaceOnUse"><path
         id="path348"
         d="m 872.009,204.322 h 43.155 v -94.155 h -43.155 z" /></clipPath><clipPath
       id="clipPath422"
       clipPathUnits="userSpaceOnUse"><path
         id="path420"
         d="M 341.503,1946.32 H 1728.79 V 664.348 H 341.503 Z" /></clipPath><clipPath
       id="clipPath442"
       clipPathUnits="userSpaceOnUse"><path
         id="path440"
         d="m 1098.3,1447.47 h 312.98 V 1166.42 H 1098.3 Z" /></clipPath><clipPath
       id="clipPath462"
       clipPathUnits="userSpaceOnUse"><path
         id="path460"
         d="m 1111.86,1492.98 h 272.71 v -173.71 h -272.71 z" /></clipPath><clipPath
       id="clipPath482"
       clipPathUnits="userSpaceOnUse"><path
         id="path480"
         d="m 1087.26,1476 h 292.76 v -292.82 h -292.76 z" /></clipPath><clipPath
       id="clipPath514"
       clipPathUnits="userSpaceOnUse"><path
         id="path512"
         d="m 1214.72,1471.28 h 148.9 v -164.05 h -148.9 z" /></clipPath><clipPath
       id="clipPath534"
       clipPathUnits="userSpaceOnUse"><path
         id="path532"
         d="M 768.324,1401.56 H 1089.74 V 1132.1 H 768.324 Z" /></clipPath><clipPath
       id="clipPath554"
       clipPathUnits="userSpaceOnUse"><path
         id="path552"
         d="M 779.136,1478.51 H 1008.57 V 1256.93 H 779.136 Z" /></clipPath><clipPath
       id="clipPath574"
       clipPathUnits="userSpaceOnUse"><path
         id="path572"
         d="M 786.346,1451.95 H 1090.05 V 1155.3 H 786.346 Z" /></clipPath><clipPath
       id="clipPath606"
       clipPathUnits="userSpaceOnUse"><path
         id="path604"
         d="M 892.667,1457.94 H 1066.9 V 1305.02 H 892.667 Z" /></clipPath><clipPath
       id="clipPath626"
       clipPathUnits="userSpaceOnUse"><path
         id="path624"
         d="m 1168.82,1689.14 h 328.33 v -227.13 h -328.33 z" /></clipPath><clipPath
       id="clipPath642"
       clipPathUnits="userSpaceOnUse"><path
         id="path640"
         d="m 1218.14,1686.13 h 234.84 V 1519.5 h -234.84 z" /></clipPath><clipPath
       id="clipPath662"
       clipPathUnits="userSpaceOnUse"><path
         id="path660"
         d="M 685.11,1685.86 H 994.609 V 1411.97 H 685.11 Z" /></clipPath><clipPath
       id="clipPath678"
       clipPathUnits="userSpaceOnUse"><path
         id="path676"
         d="M 718.479,1678.65 H 936.081 V 1477.49 H 718.479 Z" /></clipPath><clipPath
       id="clipPath702"
       clipPathUnits="userSpaceOnUse"><path
         id="path700"
         d="M 786.301,1057.7 H 1328.57 V 789.866 H 786.301 Z" /></clipPath><clipPath
       id="clipPath718"
       clipPathUnits="userSpaceOnUse"><path
         id="path716"
         d="m 786.301,1057.7 h 472.079 v -49.54 H 786.301 Z" /></clipPath><clipPath
       id="clipPath738"
       clipPathUnits="userSpaceOnUse"><path
         id="path736"
         d="M 988.265,1025.34 H 1179.26 V 864.466 H 988.265 Z" /></clipPath><clipPath
       id="clipPath758"
       clipPathUnits="userSpaceOnUse"><path
         id="path756"
         d="M 997.154,1025.34 H 1189.61 V 876.197 H 997.154 Z" /></clipPath><clipPath
       id="clipPath774"
       clipPathUnits="userSpaceOnUse"><path
         id="path772"
         d="m 1091.96,1003.73 h 93.57 V 897.562 h -93.57 z" /></clipPath><clipPath
       id="clipPath790"
       clipPathUnits="userSpaceOnUse"><path
         id="path788"
         d="m 1106.76,989.436 h 42.66 v -31.578 h -42.66 z" /></clipPath><clipPath
       id="clipPath806"
       clipPathUnits="userSpaceOnUse"><path
         id="path804"
         d="m 1152.5,995.019 h 16.93 v -23.08 h -16.93 z" /></clipPath><clipPath
       id="clipPath822"
       clipPathUnits="userSpaceOnUse"><path
         id="path820"
         d="M 836.921,1042 H 1295.24 V 821.875 H 836.921 Z" /></clipPath><clipPath
       id="clipPath838"
       clipPathUnits="userSpaceOnUse"><path
         id="path836"
         d="M 993.801,948.83 H 1341.02 V 802.595 H 993.801 Z" /></clipPath><clipPath
       id="clipPath854"
       clipPathUnits="userSpaceOnUse"><path
         id="path852"
         d="m 1181.26,868.639 h 157.57 v -64.128 h -157.57 z" /></clipPath><clipPath
       id="clipPath878"
       clipPathUnits="userSpaceOnUse"><path
         id="path876"
         d="M 768.473,1205.41 H 1474.33 V 1015.54 H 768.473 Z" /></clipPath><clipPath
       id="clipPath894"
       clipPathUnits="userSpaceOnUse"><path
         id="path892"
         d="m 1156.29,1192.93 h 247.75 V 1067.6 h -247.75 z" /></clipPath><clipPath
       id="clipPath910"
       clipPathUnits="userSpaceOnUse"><path
         id="path908"
         d="m 1219.3,1135.11 h 202.8 v -75.25 h -202.8 z" /></clipPath><clipPath
       id="clipPath926"
       clipPathUnits="userSpaceOnUse"><path
         id="path924"
         d="M 483.899,1616.48 H 856.865 V 977.63 H 483.899 Z" /></clipPath><clipPath
       id="clipPath942"
       clipPathUnits="userSpaceOnUse"><path
         id="path940"
         d="M 970.316,1817.45 H 1183.98 V 1430 H 970.316 Z" /></clipPath><clipPath
       id="clipPath958"
       clipPathUnits="userSpaceOnUse"><path
         id="path956"
         d="m 1375.17,1629.65 h 261.95 v -526.73 h -261.95 z" /></clipPath></defs><g
     transform="matrix(1.3333333,0,0,-1.3333333,0,2717.3333)"
     id="g10"><g
       id="g12"><g
         clip-path="url(#clipPath18)"
         id="g14"><g
           transform="translate(1230.0176,750.8326)"
           id="g20"><path
             id="path22"
             style="fill:#efd23d;fill-opacity:1;fill-rule:nonzero;stroke:none"
             d="m 0,0 c 0.151,-7.47 -4.498,-335.068 -5.338,-387.424 -0.839,-52.355 -5.934,-102.753 -5.934,-102.753 0,0 177.428,-19.053 187.815,-46.37 10.387,-27.316 -40.836,-18.259 -99.761,-13.22 -31.119,2.66 -69.319,9.976 -69.319,9.976 0,0 87.618,-73.017 69.319,-94.13 -15.566,-17.96 -33.441,-19.785 -88.054,41.391 -46.833,52.461 -60.823,62.406 -60.823,62.406 0,0 -105.351,-4.83 -107.795,14.388 -4.528,35.609 109.843,30.698 109.843,30.698 l 7.331,510.271 c 0,0 61.724,23.689 62.716,-25.233" /></g><g
           transform="translate(1152.9541,265.9653)"
           id="g24"><path
             id="path26"
             style="fill:#ca9731;fill-opacity:1;fill-rule:nonzero;stroke:none"
             d="m 0,0 c -2.49,0.037 -11.331,0.004 -14.813,-0.014 -4.956,-14.459 -2.362,-30.931 2.332,-45.119 1.075,-0.993 14.057,-0.257 15.753,-0.191 C -0.605,-30.185 -3.053,-14.344 0,0 m 185.363,-24.079 c -9.994,-11.067 -15.356,-28.075 -13.397,-42.486 4.964,-0.476 9.786,-0.941 14.51,-1.387 0.22,14.788 5.066,29.468 15.891,39.895 -5.467,1.377 -11.155,2.707 -17.004,3.978 M 89.956,-55.923 c 4.137,-0.746 10.451,-1.846 17.883,-3.039 -1.019,16.59 0.936,33.08 12.167,46.553 -6.936,1.035 -13.533,1.97 -19.56,2.79 -15.849,-14.626 -11.565,-39.995 -10.481,-45.92 0.024,-0.134 -0.019,-0.253 -0.009,-0.384 m -1.155,-2.663 c -6.341,0 -39.023,-3.181 -45.809,-24.057 3.669,-3.93 7.709,-8.323 12.038,-13.083 10.952,13.749 26.211,23.697 47.518,24.802 -5.644,5.222 -10.512,9.532 -13.747,12.338 m 1.275,-74.499 c 3.731,-3.575 7.251,-6.774 10.546,-9.562 4.974,17.197 26.741,26.79 45.898,23.825 -3.289,4.785 -7.243,9.757 -11.496,14.72 -20.79,-1.142 -40.041,-9.677 -44.948,-28.983 M -58.374,-3.358 c -4.508,-0.69 -8.923,-1.51 -13.111,-2.495 -6.804,-13.603 -6.366,-26.898 3.655,-37.992 5.511,-0.579 11.325,-0.99 17.163,-1.288 -8.323,13.305 -12.021,27.999 -7.707,41.775 M 70.809,67.494 C 51.355,60.247 27.973,59.643 7.964,65.746 L 7.694,46.979 c 17.645,-8.804 46.138,-5.409 62.366,5.2 0.269,4.945 0.523,10.061 0.749,15.315 m 1.321,56.45 c 0.089,5.975 0.186,12.562 0.292,19.752 -19.854,-8.063 -43.306,-9.408 -63.376,-2.621 L 8.751,120.516 c 16.918,-8.92 43.403,-5.613 63.379,3.428 m 1.208,83.108 c 0.091,6.328 0.183,12.768 0.276,19.33 -18.594,-6.603 -41.957,-4.793 -63.325,1.223 L 9.954,204.264 c 21.791,-5.292 47.059,-9.188 63.384,2.788 m 1.177,83.031 c 0.081,5.813 0.163,11.624 0.244,17.411 -21.071,-7.25 -42.888,-9.045 -63.383,-4.223 l -0.27,-18.756 c 21.748,-3.863 46.658,-2.811 63.409,5.568 m 1.069,77.002 c 0.088,6.4 0.173,12.677 0.256,18.775 -18.171,-5.53 -42.014,-3.664 -63.252,1.805 l -0.277,-19.26 c 20.19,-6.842 43.405,-8.227 63.273,-1.32" /></g><g
           id="g28"><g
             id="g30" /><g
             id="g42"><g
               style="opacity:0.10000598"
               id="g40"
               clip-path="url(#clipPath34)"><g
                 id="g38"
                 transform="translate(1406.5602,214.2865)"><path
                   id="path36"
                   style="fill:#000000;fill-opacity:1;fill-rule:nonzero;stroke:none"
                   d="m 0,0 c -0.778,2.048 -2.595,4.043 -5.106,5.993 -8.708,-7.792 -26.757,-8.602 -40.927,-7.184 -48.027,4.804 -96.054,9.609 -144.081,14.413 5.429,-3.645 11.175,-10.245 21.034,-16.467 13.147,-2.313 47.447,-8.106 69.319,-9.976 C -40.836,-18.26 10.388,-27.317 0,0 m -119.422,-81.458 c -7.621,2.325 -13.624,7.29 -19.302,12.165 -35.697,30.649 -65.777,61.204 -95.988,95.792 5.034,4.262 10.068,8.525 15.103,12.788 5.606,138.462 7.416,277.034 5.428,415.566 13.189,2.736 25.706,7.627 36.839,14.183 0.513,38.675 0.841,65.437 0.799,67.511 -0.991,48.921 -62.716,25.232 -62.716,25.232 L -246.59,51.508 c 0,0 -114.371,4.912 -109.843,-30.698 2.444,-19.218 107.795,-14.388 107.795,-14.388 0,0 13.991,-9.945 60.823,-62.405 54.613,-61.177 72.488,-59.352 88.054,-41.392 3.667,4.23 3.034,10.563 -0.247,17.956 -5.153,-3.499 -13.005,-3.995 -19.414,-2.039" /></g></g></g></g><g
           id="g44"><g
             id="g46" /><g
             id="g58"><g
               style="opacity:0.30000299"
               id="g56"
               clip-path="url(#clipPath50)"><g
                 id="g54"
                 transform="translate(1224.4771,260.0068)"><path
                   id="path52"
                   style="fill:#ffffff;fill-opacity:1;fill-rule:nonzero;stroke:none"
                   d="m 0,0 c 0,0 18.553,-8.12 51.56,-18.287 18.221,-5.612 34.294,-11.224 53.507,-13.549 7.984,-0.967 29,-3.785 36.032,-0.218 2.196,1.113 4.367,3.028 6.351,5.379 C 100.786,-12.348 21.68,-2.518 0,0" /></g></g></g></g><g
           id="g60"><g
             id="g62" /><g
             id="g74"><g
               style="opacity:0.30000299"
               id="g72"
               clip-path="url(#clipPath66)"><g
                 id="g70"
                 transform="translate(1224.6796,363.4087)"><path
                   id="path68"
                   style="fill:#ffffff;fill-opacity:1;fill-rule:nonzero;stroke:none"
                   d="m 0,0 c 0.579,36.113 2.971,203.168 4.35,305.804 -5.556,-2.814 -11.505,-5.143 -17.598,-7.284 -0.918,-16.908 -0.919,-133.282 -3.109,-174.677 -0.193,-5.403 -2.681,-214.257 -3.598,-220.208 0.008,-0.708 9.872,2.573 15.005,4.329 C -3.427,-74.522 -0.606,-37.825 0,0" /></g></g></g></g><g
           id="g76"><g
             id="g78" /><g
             id="g90"><g
               style="opacity:0.30000299"
               id="g88"
               clip-path="url(#clipPath82)"><g
                 id="g86"
                 transform="translate(1237.481,211.0417)"><path
                   id="path84"
                   style="fill:#ffffff;fill-opacity:1;fill-rule:nonzero;stroke:none"
                   d="m 0,0 c 0,0 -20.518,12.123 -32.528,17.129 3.101,-6.747 35.507,-43.924 47.335,-55.917 4.528,-4.591 15.289,-17.885 21.244,-21.662 21.442,-13.597 16.417,8.945 -0.755,27.766 C 17.547,-14.633 0,0 0,0" /></g></g></g></g><g
           transform="translate(1537.1846,1145.9884)"
           id="g92"><path
             id="path94"
             style="fill:#777cbb;fill-opacity:1;fill-rule:nonzero;stroke:none"
             d="m 0,0 c 0,0 22.386,28.599 82.944,-193.44 60.557,-222.039 48.446,-458.943 48.446,-458.943 l -2.789,-44.108 -65.229,-24.837 c 0,0 12.305,128.414 2.414,193.698 0,0 -25.195,-229.953 -41.564,-253.896 0,0 -58.448,-2.702 -71.321,4.845 0,0 31.088,81.21 41.362,167.2 10.275,85.991 11.902,89.362 11.902,89.362 0,0 -58.052,-241.72 -65.728,-258.69 l -63.489,16.942 c 0,0 10.665,42.14 29.606,109.484 18.941,67.344 34.507,133.414 34.507,133.414 0,0 -53.913,-148.606 -72.285,-181.218 l -43.222,47.804 c 0,0 43.159,100.117 67.916,193.944 24.758,93.828 50.504,332.44 59.431,392.384 C -38.171,-6.112 -14.344,7.178 0,0" /></g><g
           transform="translate(1606.1123,512.9718)"
           id="g96"><path
             id="path98"
             style="fill:#f17aa9;fill-opacity:1;fill-rule:nonzero;stroke:none"
             d="m 0,0 c -1.636,-47.386 -5.556,-88.312 -5.556,-88.312 l 65.229,24.838 2.789,44.107 c 0,0 0.795,15.611 0.958,42.526 C 38.53,8.234 0.936,0.771 0,0 m -91.206,-62.995 c -11.926,-46.957 -24.82,-80.669 -24.82,-80.669 12.873,-7.548 71.32,-4.845 71.32,-4.845 6.06,8.863 13.329,45.968 20.082,89.179 -1.645,-0.828 -3.467,-1.557 -5.513,-2.161 -23.328,-5.68 -56.489,-2.153 -61.069,-1.504 m -24.138,4.097 c -5.804,1.096 -49.444,14.819 -53.065,17.921 -15.145,-54.595 -23.57,-87.873 -23.57,-87.873 l 63.489,-16.942 c 2.787,6.162 12.219,41.968 23.1,85.067 -3.391,0.599 -6.717,1.216 -9.954,1.827 M -216.193,49.097 c -15.07,-40.367 -27.181,-68.464 -27.181,-68.464 l 43.222,-47.804 c 7.696,13.662 21.628,47.681 35.221,82.601 -1.009,0.483 -37.423,15.803 -51.262,33.667" /></g><g
           id="g100"><g
             id="g102" /><g
             id="g114"><g
               style="opacity:0.14999402"
               id="g112"
               clip-path="url(#clipPath106)"><g
                 id="g110"
                 transform="translate(1613.9271,451.2622)"><path
                   id="path108"
                   style="fill:#000000;fill-opacity:1;fill-rule:nonzero;stroke:none"
                   d="m 0,0 c 10.856,85.34 8.092,172.398 -8.157,256.878 -0.758,-36.419 -2.14,-69.155 -3.906,-99.638 0.715,6.288 1.107,9.856 1.107,9.856 9.89,-65.284 -2.415,-193.698 -2.415,-193.698 l 65.229,24.838 0.356,5.629 C 34.911,1.496 17.464,0.176 0,0 m -59.201,110.806 c 6.784,44.829 5.113,97.695 6.067,143.023 -8.896,-38.045 -15.999,-70.11 -21.955,-97.935 2.194,9.077 3.691,15.296 4.255,17.642 -0.751,-3.649 -3.439,-19.613 -11.645,-88.29 -10.275,-85.991 -41.362,-167.2 -41.362,-167.2 12.873,-7.548 71.32,-4.845 71.32,-4.845 0.616,0.901 1.246,2.127 1.885,3.588 -15.888,2.866 -28.668,5.08 -47.141,12.216 19.285,59.607 29.202,119.858 38.576,181.801 m -17.541,583.92 c -14.345,7.178 -38.171,-6.111 -47.099,-66.055 -8.928,-59.943 -34.674,-298.556 -59.431,-392.383 C -208.03,142.46 -251.188,42.343 -251.188,42.343 l 43.221,-47.804 c 18.372,32.612 72.285,181.219 72.285,181.219 0,0 -15.566,-66.071 -34.507,-133.415 -18.941,-67.344 -29.605,-109.483 -29.605,-109.483 l 63.489,-16.943 c 0.768,1.698 2.048,5.679 3.716,11.412 -11.683,5.46 -23.754,10.093 -36.117,13.763 18.698,62.216 37.358,124.446 55.978,186.686 20.325,67.937 40.662,136.148 51.469,206.232 12.475,80.901 12.082,163.231 8.784,245.022 -0.84,20.826 -1.841,41.949 2.797,62.269 0.984,4.31 2.927,9.14 6.266,11.577 -23.703,54.143 -33.33,41.848 -33.33,41.848" /></g></g></g></g><g
           id="g116"><g
             id="g118" /><g
             id="g130"><g
               style="opacity:0.14999402"
               id="g128"
               clip-path="url(#clipPath122)"><g
                 id="g126"
                 transform="translate(1577.8857,559.29)"><path
                   id="path124"
                   style="fill:#ffffff;fill-opacity:1;fill-rule:nonzero;stroke:none"
                   d="m 0,0 c 2.155,-0.153 6.271,-0.758 10.542,-1.055 8.001,66.788 12.681,126.801 18.378,223.334 9.039,-49.774 13.927,-84.905 18.974,-130.877 0.747,-6.799 1.357,-13.222 1.904,-19.481 2.538,0.877 5.323,1.629 8.408,2.245 7.091,1.417 13.985,2.867 20.655,4.669 -4.772,98.078 -15.547,195.814 -41.669,290.629 -6.374,23.136 -12.856,50.599 -22.014,75.458 1.234,-15.683 2.651,-31.362 3.77,-47.018 C 22.94,342.104 24.027,285.737 16.381,230.23 11.947,198.04 6.552,165.857 0.914,133.73 -1.496,91.1 -5.412,48.562 -11.339,6.267 -11.47,5.331 -11.732,3.592 -12.085,1.306 -8.052,0.769 -4.021,0.286 0,0" /></g></g></g></g><g
           transform="translate(955.9283,750.2576)"
           id="g132"><path
             id="path134"
             style="fill:#777cbb;fill-opacity:1;fill-rule:nonzero;stroke:none"
             d="m 0,0 c -32.23,0.786 -55.129,-27.829 -70.64,-45.264 -24.875,-27.959 -50.357,-56.017 -72.269,-85.421 -22.934,-30.777 -104.458,-160.399 -104.458,-160.399 l 46.319,-39.462 c 19.689,26.921 77.465,149.595 77.465,149.595 0,0 -16.681,-54.541 -36.98,-110.133 -20.298,-55.591 -31.726,-90.378 -31.726,-90.378 l 68.038,-13.986 c 7.911,13.474 65.754,198.544 70.162,212.662 -0.804,-3.015 -3.686,-16.196 -12.478,-72.882 -11.012,-70.985 -44.326,-138.023 -44.326,-138.023 13.795,-6.23 76.43,-3.999 76.43,-3.999 17.542,19.765 44.543,209.589 44.543,209.589 10.6,-53.891 -2.588,-159.897 -2.588,-159.897 l 69.904,20.504 2.988,36.41 c 0,0 6.649,100.27 -13.395,224.501 C 56.188,-24.735 36.418,-0.887 0,0" /></g><g
           id="g136"><g
             id="g138" /><g
             id="g150"><g
               style="opacity:0.14999402"
               id="g148"
               clip-path="url(#clipPath142)"><g
                 id="g146"
                 transform="translate(856.9442,529.6995)"><path
                   id="path144"
                   style="fill:#000000;fill-opacity:1;fill-rule:nonzero;stroke:none"
                   d="m 0,0 c 21.781,56.082 43.575,112.39 55.157,170.244 2.48,12.387 4.346,24.825 5.947,37.283 C 47.722,197.917 36.902,184.913 28.344,175.294 3.469,147.335 -22.013,119.277 -43.925,89.873 -66.859,59.096 -148.383,-70.526 -148.383,-70.526 l 46.319,-39.462 c 19.689,26.921 77.465,149.595 77.465,149.595 0,0 -16.681,-54.541 -36.979,-110.133 -20.298,-55.591 -31.727,-90.377 -31.727,-90.377 l 68.038,-13.986 c 0.824,1.401 2.194,4.687 3.983,9.42 -12.521,4.508 -25.456,8.331 -38.706,11.361 C -39.951,-102.748 -19.955,-51.379 0,0" /></g></g></g></g><g
           id="g152"><g
             id="g154" /><g
             id="g166"><g
               style="opacity:0.14999402"
               id="g164"
               clip-path="url(#clipPath158)"><g
                 id="g162"
                 transform="translate(969.009,636.2706)"><path
                   id="path160"
                   style="fill:#000000;fill-opacity:1;fill-rule:nonzero;stroke:none"
                   d="m 0,0 c -0.813,-30.064 -2.295,-57.087 -4.186,-82.25 0.767,5.19 1.186,8.136 1.186,8.136 10.599,-53.891 -2.588,-159.897 -2.588,-159.897 l 69.904,20.504 0.381,4.646 c -18.543,-1.954 -37.241,-3.045 -55.956,-3.19 C 20.375,-141.603 17.413,-69.737 0,0" /></g></g></g></g><g
           id="g168"><g
             id="g170" /><g
             id="g182"><g
               style="opacity:0.14999402"
               id="g180"
               clip-path="url(#clipPath174)"><g
                 id="g178"
                 transform="translate(914.3069,515.69)"><path
                   id="path176"
                   style="fill:#000000;fill-opacity:1;fill-rule:nonzero;stroke:none"
                   d="M 0,0 C 7.27,37.006 5.479,80.646 6.502,118.064 -3.031,86.658 -10.644,60.189 -17.027,37.219 c 2.351,7.493 3.956,12.628 4.56,14.564 -0.804,-3.013 -3.685,-16.191 -12.479,-72.883 -11.011,-70.985 -44.326,-138.023 -44.326,-138.023 13.795,-6.231 76.431,-3.999 76.431,-3.999 0.659,0.743 1.335,1.756 2.02,2.961 -17.027,2.367 -30.722,4.194 -50.519,10.084 C -20.674,-100.871 -10.045,-51.134 0,0" /></g></g></g></g><g
           transform="translate(799.7333,666.7709)"
           id="g184"><path
             id="path186"
             style="fill:#777cbb;fill-opacity:1;fill-rule:nonzero;stroke:none"
             d="m 0,0 c 7.972,71.975 37.355,159.108 -65.528,183.163 -50.701,11.854 -126.06,13.543 -172.173,20.751 0,0 9.282,12.347 20.589,29.674 l 2.229,5.594 c 0.003,0.006 0.006,0.011 0.009,0.017 18.533,46.497 37.924,96.629 36.614,145.364 -0.644,23.977 -9.652,46.01 -35.402,42.589 -47.172,-30.385 -113.456,-93.435 -183.651,-174.125 -94.346,-108.45 -87.916,-119.923 -84.254,-126.128 23.364,-39.598 215.71,-50.089 215.71,-50.089 L -392.172,-9.538 -336.19,-43.72 c 43.458,10.983 131.254,77.644 131.254,77.644 C -226.607,3.666 -332.89,-67.756 -332.89,-67.756 l 82.141,-30.268 c 33.555,7.499 121.228,132.237 121.228,132.237 -18.512,-46.106 -96.711,-136.468 -96.711,-136.468 0,0 51.925,-13.574 77.952,-9.478 26.798,4.216 86.353,136.011 86.353,136.011 l -46.777,-115.412 c 11.916,-10.965 68.14,-16.472 68.14,-16.472 0,0 32.728,36.871 40.564,107.606" /></g><g
           transform="translate(734.0492,630.2971)"
           id="g188"><path
             id="path190"
             style="fill:#f17aa9;fill-opacity:1;fill-rule:nonzero;stroke:none"
             d="M 0,0 C -0.43,-0.038 -16.019,-1.073 -21.378,-1.263 L -43.02,-54.66 c 11.916,-10.965 68.14,-16.472 68.14,-16.472 0,0 25.336,28.594 36.745,83.6 C 49.876,8.384 2.681,0.239 0,0 m -104.957,3.997 c -26.787,-36.482 -55.591,-69.778 -55.591,-69.778 0,0 51.925,-13.574 77.952,-9.479 14.019,2.206 36.852,39.045 55.551,73.87 -5.284,-0.116 -66.368,3.527 -77.912,5.387 m -40.624,8.557 c 0,0 -35.246,11.446 -41.465,14.11 -36.939,-28.894 -80.16,-57.946 -80.16,-57.946 l 82.141,-30.268 c 16.489,3.685 45.883,35.482 71.629,66.999 -4.788,0.871 -28.934,6.25 -32.145,7.105 m -50.464,18.283 c -1.684,0.806 -3.417,1.539 -5.075,2.385 -12.408,6.329 -50.432,39.683 -53.375,42.928 l -71.993,-49.214 55.982,-34.182 c 19.811,5.007 48.769,21.545 74.461,38.083" /></g><g
           id="g192"><g
             id="g194" /><g
             id="g206"><g
               style="opacity:0.14999402"
               id="g204"
               clip-path="url(#clipPath198)"><g
                 id="g202"
                 transform="translate(594.7971,700.6949)"><path
                   id="path200"
                   style="fill:#000000;fill-opacity:1;fill-rule:nonzero;stroke:none"
                   d="M 0,0 C -0.522,-0.727 -1.133,-1.498 -1.75,-2.271 16.842,15.125 32.16,34.242 42.584,54.996 -6.439,13.349 -71.182,-23.322 -126.21,-60.205 c -15.326,8.859 -30.316,18.116 -44.983,27.711 l -16.043,-10.968 55.982,-34.182 C -87.796,-66.661 0,0 0,0" /></g></g></g></g><g
           id="g208"><g
             id="g210" /><g
             id="g222"><g
               style="opacity:0.14999402"
               id="g220"
               clip-path="url(#clipPath214)"><g
                 id="g218"
                 transform="translate(799.7333,666.7712)"><path
                   id="path216"
                   style="fill:#000000;fill-opacity:1;fill-rule:nonzero;stroke:none"
                   d="m 0,0 c 7.972,71.974 37.355,159.108 -65.528,183.163 -50.701,11.854 -126.06,13.543 -172.173,20.751 0,0 9.282,12.347 20.589,29.674 l 2.229,5.593 c 0.003,0.006 0.006,0.011 0.009,0.018 18.533,46.496 37.924,96.629 36.614,145.364 -0.644,23.98 -9.655,46.017 -35.414,42.587 -12.354,-7.962 -26.011,-18.14 -40.738,-30.338 9.709,-1.924 18.947,-8.894 22.788,-16.456 5.06,-9.962 3.33,-20.349 1.521,-30.168 -7.086,-38.468 -14.127,-76.694 -21.124,-114.68 -0.484,-2.627 -1.02,-5.354 -3.048,-7.38 -3.576,-3.57 -10.573,-3.949 -16.843,-4.256 -52.805,-2.586 -102.098,-17.85 -139.006,-43.066 79.092,7.678 161.478,4.802 242.091,-8.345 24.394,-3.978 50.052,-9.484 68.623,-22.986 33.527,-24.375 29.704,-62.84 18.868,-93.261 -18.315,-51.42 -48.547,-99.159 -89.015,-140.775 -5.453,-5.609 -11.203,-11.188 -18.924,-15.121 0,0 -17.089,2.84 -31.493,4.787 -3.912,-4.647 -6.258,-7.361 -6.258,-7.361 0,0 51.925,-13.573 77.952,-9.478 26.799,4.217 86.353,136.011 86.353,136.011 l -46.776,-115.411 c 11.915,-10.965 68.139,-16.472 68.139,-16.472 0,0 32.728,36.871 40.564,107.606" /></g></g></g></g><g
           id="g224"><g
             id="g226" /><g
             id="g238"><g
               style="opacity:0.14999402"
               id="g236"
               clip-path="url(#clipPath230)"><g
                 id="g234"
                 transform="translate(686.9509,736.7712)"><path
                   id="path232"
                   style="fill:#000000;fill-opacity:1;fill-rule:nonzero;stroke:none"
                   d="m 0,0 c -49.986,-48.247 -101.684,-95.1 -155.037,-140.526 -14.474,6.669 -29.973,12.027 -45.942,15.926 -11.514,-8.036 -19.128,-13.156 -19.128,-13.156 l 82.141,-30.268 c 33.554,7.499 121.227,132.236 121.227,132.236 0,0 11.88,21.708 16.739,35.788" /></g></g></g></g><g
           id="g240"><g
             id="g242" /><g
             id="g254"><g
               style="opacity:0.14999402"
               id="g252"
               clip-path="url(#clipPath246)"><g
                 id="g250"
                 transform="translate(734.2053,849.9342)"><path
                   id="path248"
                   style="fill:#000000;fill-opacity:1;fill-rule:nonzero;stroke:none"
                   d="m 0,0 c -9.372,2.191 -19.594,4.032 -30.312,5.628 49.481,-52.748 72.167,-123.133 63.567,-179.523 -6.179,-40.518 -27.78,-76.353 -55.556,-109.022 20.514,-5.228 47.265,-7.852 47.265,-7.852 0,0 32.728,36.87 40.564,107.606 C 73.5,-111.189 102.883,-24.055 0,0" /></g></g></g></g><g
           id="g256"><g
             id="g258" /><g
             id="g270"><g
               style="opacity:0.14999402"
               id="g268"
               clip-path="url(#clipPath262)"><g
                 id="g266"
                 transform="translate(572.7471,885.6671)"><path
                   id="path264"
                   style="fill:#000000;fill-opacity:1;fill-rule:nonzero;stroke:none"
                   d="m 0,0 c -17.958,0.049 -35.847,-1.31 -53.441,-3.876 -26.736,-3.898 -52.928,-10.215 -77.055,-18.609 -0.884,-0.308 -1.76,-0.643 -2.634,-0.995 2.049,0.276 4.095,0.591 6.147,0.8 26.998,2.751 54.363,4.241 81.684,5.642 12.045,0.617 24.198,1.316 36.414,1.793 -0.597,0.09 -1.242,0.171 -1.829,0.263 0,0 4.352,5.789 10.714,14.982" /></g></g></g></g><g
           id="g272"><g
             id="g274" /><g
             id="g286"><g
               style="opacity:0.14999402"
               id="g284"
               clip-path="url(#clipPath278)"><g
                 id="g282"
                 transform="translate(595.0167,836.5353)"><path
                   id="path280"
                   style="fill:#ffffff;fill-opacity:1;fill-rule:nonzero;stroke:none"
                   d="m 0,0 c -48.735,6.479 -97.96,8.169 -145.884,4.978 -32.839,-2.186 -65.944,-6.927 -91.554,-20.368 -2.265,-1.188 -4.559,-2.541 -5.386,-4.556 -2.409,-5.876 8.063,-12.012 16.747,-13.62 44.048,-8.153 101.295,-9.124 164.798,-8.895 -18.543,-4.508 -50.65,-12.445 -80.844,-10.152 47.689,-15.649 104.447,-13.643 153.492,-6.062 -40.411,-29.506 -104.752,-82.081 -147.767,-109.191 2.465,-2.266 17.812,-10.553 19.392,-12.066 60.139,37.628 112.895,73.536 173.287,111.325 -21.323,-46.873 -69.331,-98.471 -117.483,-136.127 0,0 15.999,-4.139 25.188,-5.711 50.672,40.061 95.855,84.243 134.819,131.897 2.474,-47.739 -52.561,-126.619 -79.499,-166.515 3.531,1.8 15.053,-0.301 15.053,-0.301 14.485,25.792 57.396,79.495 69.538,106.446 11.875,26.359 22.946,64.947 3.823,92.122 -20.033,28.469 -55.28,39.447 -96.524,45.358" /></g></g></g></g><g
           transform="translate(964.3115,165.263)"
           id="g288"><path
             id="path290"
             style="fill:#efd23d;fill-opacity:1;fill-rule:nonzero;stroke:none"
             d="m 0,0 c -1.759,0.495 -3.665,1.051 -5.864,1.73 -1.466,0.433 -3.006,0.866 -4.545,1.36 -0.073,0.062 -0.22,0.062 -0.293,0.062 -3.885,1.174 -7.917,2.472 -12.096,3.831 -0.219,0.124 -0.439,0.186 -0.659,0.247 -2.712,0.927 -5.571,1.854 -8.43,2.781 -1.906,0.68 -3.812,1.298 -5.718,1.916 -0.953,0.37 -1.906,0.68 -2.859,0.989 -2.345,0.741 -4.691,1.544 -6.964,2.348 -1.393,0.494 -2.712,0.927 -4.105,1.421 -1.466,0.494 -2.859,0.989 -4.252,1.483 -0.293,0.124 -0.586,0.186 -0.879,0.309 -1.393,0.494 -2.786,0.927 -4.105,1.422 -0.807,0.246 -1.54,0.494 -2.273,0.803 -1.026,0.309 -1.906,0.68 -2.786,0.926 -0.659,0.248 -1.319,0.495 -1.979,0.742 -1.026,0.371 -1.905,0.68 -2.712,0.989 -1.099,0.371 -2.052,0.68 -2.932,0.989 -0.806,0.308 -1.319,0.494 -1.54,0.618 -0.073,0 -0.146,0.061 -0.219,0.061 0,0 38.778,-72.795 39.071,-102.889 0.073,-4.944 -0.953,-8.714 -3.298,-10.877 -14.002,-12.544 -41.858,-10.258 -56.592,37.016 -11.875,38.375 -35.406,91.952 -35.406,91.952 0,0 -73.158,10.815 -74.991,28.179 -3.518,32.69 87.306,12.792 87.306,12.792 l 26.83,578.47 c 0,0 65.168,33.678 62.382,-35.471 0,-0.556 -0.147,-2.225 -0.293,-5.006 -0.073,-0.927 -0.147,-1.977 -0.22,-3.151 -0.074,-0.556 -0.074,-1.174 -0.147,-1.792 0,-1.298 -0.146,-2.657 -0.219,-4.141 -0.074,-1.297 -0.221,-2.719 -0.294,-4.14 -0.146,-1.854 -0.293,-3.893 -0.367,-5.994 -0.073,-1.112 -0.146,-2.163 -0.219,-3.275 -0.147,-2.534 -0.294,-5.253 -0.513,-8.034 -0.074,-0.927 -0.147,-1.915 -0.221,-2.904 -0.219,-2.905 -0.366,-5.871 -0.586,-9.022 -0.073,-1.112 -0.146,-2.225 -0.22,-3.337 -0.073,-1.113 -0.147,-2.225 -0.22,-3.337 -0.146,-1.669 -0.22,-3.399 -0.366,-5.191 -0.146,-2.719 -0.367,-5.562 -0.513,-8.466 -0.22,-2.843 -0.44,-5.809 -0.587,-8.837 -0.22,-3.522 -0.44,-7.106 -0.733,-10.814 C -43.689,415.02 -57.691,205.347 -60.33,167.096 -63.848,115.434 -70.739,68.223 -70.739,68.223 c 0,0 141.699,-41.465 158.045,-69.026 0.22,-0.433 0.513,-0.804 0.66,-1.236 0.367,-0.68 0.586,-1.298 0.733,-1.916 C 95.003,-30.96 50.581,-14.151 0,0" /></g><g
           transform="translate(839.5173,247.6175)"
           id="g292"><path
             id="path294"
             style="fill:#ca9731;fill-opacity:1;fill-rule:nonzero;stroke:none"
             d="m 0,0 c -2.022,0.377 -12.001,2.018 -12.001,2.018 -6.856,-8.756 -12.45,-28.17 -9.054,-41.6 0,0 13.06,-2.34 14.419,-2.527 C -9.312,-27.896 -2.883,-12.791 0,0 m 155.736,-49.543 c -9.704,-8.816 -16.05,-23.724 -15.521,-37.224 4.238,-1.232 8.361,-2.435 12.41,-3.606 1.456,13.525 7.189,26.423 17.687,34.493 -4.714,2.152 -9.534,4.234 -14.576,6.337 M 71.914,-65.205 c 3.398,-1.308 8.649,-2.843 14.79,-5.069 0.145,15.264 2.434,30.686 12.869,41.586 -5.867,1.993 -11.436,3.839 -16.514,5.489 -14.212,-11.286 -12.013,-35.173 -11.436,-40.709 0.013,-0.125 0.29,-1.177 0.291,-1.297 M 53.96,-65.782 c -4.84,1.977 -36.351,7.878 -47.364,-7.882 1.606,-4.461 4.779,-11.354 6.634,-16.709 12.093,8.231 32.279,13.809 48.826,8.073 -2.73,6.277 -6.473,13.076 -8.096,16.518 m -24.777,-69.493 c -0.026,-1.282 5.143,-13.312 5.143,-13.312 4.996,13.931 30.212,21.304 48.889,14.805 -1.267,4.241 -4.864,13.797 -4.864,13.797 -16.045,3.645 -48.917,-2.846 -49.168,-15.29 M -46.856,4.85 C -50.422,4.825 -58.5,4.517 -59.113,4.09 c -5.064,-3.522 -10.744,-22.918 -4.384,-32.216 0.196,-0.286 10.632,-3.977 15.184,-5.067 -6.334,13.046 -3.66,29.363 1.457,38.043 M 62.056,55.009 C 45.013,50.426 25.178,52.864 8.606,61.351 L 7.767,43.256 c 14.377,-10.749 38.477,-11.282 52.834,-3.161 0.491,4.792 0.981,9.774 1.455,14.914 m 4.243,56.689 c 0.414,6.152 0.873,12.965 1.376,20.442 -17.976,-6.102 -38.501,-4.805 -55.582,4.433 l -0.971,-20.954 c 14.151,-10.999 37.192,-10.795 55.177,-3.921 m 5.919,88.168 c 0.466,6.952 0.942,14.062 1.429,21.345 -17.39,-5.551 -38.42,-1.342 -57.294,7.254 l -1.177,-25.396 c 19.108,-7.857 41.553,-14.614 57.042,-3.203 m 6.288,94.072 c 0.455,6.826 0.912,13.682 1.37,20.543 -20.38,-7.026 -40.839,-7.515 -59.553,-0.393 L 19.317,292.38 c 19.768,-6.139 42.932,-6.894 59.189,1.558 m 6.203,93.137 c 0.533,8.014 1.058,15.916 1.57,23.634 -18.181,-6.093 -41.158,-2.577 -61.232,5.274 L 23.94,392.101 c 18.839,-9.506 41.02,-12.508 60.769,-5.026" /></g><g
           id="g296"><g
             id="g298" /><g
             id="g310"><g
               style="opacity:0.10000598"
               id="g308"
               clip-path="url(#clipPath302)"><g
                 id="g306"
                 transform="translate(872.0212,824.9326)"><path
                   id="path304"
                   style="fill:#000000;fill-opacity:1;fill-rule:nonzero;stroke:none"
                   d="m 0,0 -26.83,-578.47 c 0,0 -90.824,19.898 -87.306,-12.792 1.833,-17.364 74.991,-28.179 74.991,-28.179 0,0 23.531,-53.576 35.406,-91.951 14.735,-47.274 42.59,-49.561 56.592,-37.016 2.345,2.163 3.372,5.933 3.298,10.876 -14.294,-15.881 -31.14,11.721 -34.585,17.159 -22.212,35.285 -39.013,116.628 -34.761,119.842 10.556,133.911 26.829,290.44 32.401,457.597 13.048,2.967 25.73,8.776 37.239,16.809 0.073,1.112 0.146,2.163 0.219,3.213 0.22,3.708 0.44,7.292 0.734,10.814 0.146,3.029 0.366,5.995 0.586,8.837 0.146,2.905 0.367,5.748 0.513,8.467 0.147,1.792 0.22,3.521 0.366,5.19 0.074,1.112 0.147,2.225 0.22,3.337 0.074,1.113 0.147,2.225 0.22,3.337 0.22,3.152 0.367,6.118 0.587,9.022 0.073,0.989 0.147,1.978 0.22,2.905 0.146,2.843 0.293,5.5 0.513,8.033 0.073,1.112 0.147,2.163 0.22,3.275 0.073,2.101 0.22,4.141 0.366,5.994 0.073,1.422 0.22,2.843 0.294,4.141 0.073,1.483 0.146,2.842 0.22,4.14 0.073,0.618 0.073,1.236 0.146,1.792 0.074,1.174 0.147,2.225 0.22,3.152 0.147,2.781 0.293,4.449 0.293,5.005 C 65.168,33.679 0,0 0,0 m 180.989,-663.625 c -0.146,0.619 -0.366,1.236 -0.733,1.916 -0.146,0.433 -0.44,0.803 -0.66,1.236 -0.659,1.051 -1.539,2.163 -2.565,3.276 -8.65,-5.871 -24.777,-3.647 -37.165,-0.062 -41.418,12.112 -93.318,28.611 -133.122,40.229 4.325,-4.141 10.336,-17.612 10.336,-17.612 0.073,0 0.147,-0.062 0.22,-0.062 0.22,-0.124 0.733,-0.309 1.539,-0.618 0.88,-0.309 1.833,-0.618 2.932,-0.989 0.807,-0.309 1.687,-0.618 2.712,-0.988 0.661,-0.248 1.32,-0.495 1.98,-0.742 0.88,-0.309 1.833,-0.618 2.786,-0.927 0.732,-0.309 1.466,-0.556 2.272,-0.803 1.319,-0.495 2.712,-0.927 4.105,-1.422 0.293,-0.123 0.587,-0.185 0.879,-0.308 1.393,-0.495 2.786,-0.989 4.252,-1.483 1.393,-0.495 2.713,-0.928 4.105,-1.422 2.273,-0.741 4.619,-1.545 6.964,-2.348 0.953,-0.309 1.906,-0.618 2.859,-0.989 1.906,-0.618 3.812,-1.236 5.718,-1.916 2.859,-0.926 5.718,-1.853 8.43,-2.78 0.22,-0.062 0.44,-0.124 0.66,-0.248 4.252,-1.297 8.356,-2.595 12.095,-3.831 0.074,0 0.22,0 0.293,-0.062 1.613,-0.494 3.079,-0.926 4.545,-1.359 2.199,-0.68 4.105,-1.236 5.864,-1.731 50.581,-14.151 95.004,-30.959 88.699,-3.955" /></g></g></g></g><g
           id="g312"><g
             id="g314" /><g
             id="g326"><g
               style="opacity:0.30000299"
               id="g324"
               clip-path="url(#clipPath318)"><g
                 id="g322"
                 transform="translate(898.3564,232.0283)"><path
                   id="path320"
                   style="fill:#ffffff;fill-opacity:1;fill-rule:nonzero;stroke:none"
                   d="m 0,0 c 0,0 15.179,-10.263 42.58,-24.619 15.226,-7.978 28.666,-15.661 45.161,-20.809 6.891,-2.15 25.11,-8.101 31.671,-5.886 2.058,0.694 4.175,2.146 6.174,4.041 C 85.625,-26.507 18.142,-5.485 0,0" /></g></g></g></g><g
           id="g328"><g
             id="g330" /><g
             id="g342"><g
               style="opacity:0.30000299"
               id="g340"
               clip-path="url(#clipPath334)"><g
                 id="g338"
                 transform="translate(903.9897,332.3724)"><path
                   id="path336"
                   style="fill:#ffffff;fill-opacity:1;fill-rule:nonzero;stroke:none"
                   d="M 0,0 C 2.522,36.849 14.892,221.568 23.28,348.18 17.57,344.801 11.536,342.078 5.405,339.615 3.439,318.264 -3.506,178.849 -7.817,132.537 c -0.468,-5.94 -12.965,-218.042 -13.999,-223.494 -0.025,-0.664 8.371,1.02 12.766,1.947 C -6.884,-72.629 -2.568,-37.529 0,0" /></g></g></g></g><g
           id="g344"><g
             id="g346" /><g
             id="g358"><g
               style="opacity:0.30000299"
               id="g356"
               clip-path="url(#clipPath350)"><g
                 id="g354"
                 transform="translate(892.3898,179.7751)"><path
                   id="path352"
                   style="fill:#ffffff;fill-opacity:1;fill-rule:nonzero;stroke:none"
                   d="m 0,0 c 0,0 -12.505,16.653 -20.381,24.547 0.566,-6.837 15.33,-48.656 21.108,-62.461 2.208,-5.274 6.788,-19.795 10.303,-24.794 12.658,-18.005 15.145,2.524 7.166,23.826 C 9.512,-17.962 0,0 0,0" /></g></g></g></g><g
           transform="translate(1649.7612,1276.2423)"
           id="g360"><path
             id="path362"
             style="fill:#777cbb;fill-opacity:1;fill-rule:nonzero;stroke:none"
             d="m 0,0 c 13.376,5.178 37.88,14.532 47.345,17.281 5.357,1.555 19.267,7.184 31.682,15.24 -1.522,20.737 -7.52,41.459 -18.36,59.021 -31.888,4.014 -64.883,-10.959 -58.052,-6.757 4.483,2.756 11.155,6.86 21.085,12.966 11.196,6.885 20.738,15.128 27.314,23.619 -6.334,15.208 -13.523,31.019 -23.004,44.652 -25.342,-2.368 -57.018,-19.224 -57.018,-19.224 0,0 -27.817,158.514 -174.731,224.238 -146.915,65.726 -326.693,50.261 -326.693,50.261 0,0 83.123,32.863 123.718,46.394 10.765,3.588 22.469,9.088 33.083,15.437 -2.429,17.072 -5.835,34.007 -9.036,51.012 -60.574,-6.241 -170.962,-47.118 -170.962,-47.118 l 124.242,48.824 c 0,0 48.045,18.527 71.108,32.958 -10.182,18.364 -20.337,36.686 -32.55,53.698 -60.954,-13.945 -140.961,-64.23 -182.67,-92.543 39.586,28.182 86.376,77.881 136.718,107.674 -8.029,10.892 -16.212,22.313 -25.441,32.441 -17.031,-4.995 -41.407,-16.106 -75.943,-36.137 -96.654,-56.059 -139.182,-156.58 -139.182,-156.58 0,0 16.373,72.056 17.464,94.053 -10.715,2.626 -21.195,3.662 -31.508,3.431 -4.381,-6.93 -9.334,-16.034 -14.953,-27.893 -34.795,-73.458 -28.996,-139.182 -28.996,-139.182 0,0 -71.524,0 -158.513,-28.997 -86.989,-28.996 -113.569,-34.969 -210.224,-100.695 -96.655,-65.725 -81.673,-174.665 -81.673,-174.665 0,0 -30.276,14.624 -58.193,12.325 -11.158,-16.026 -16.871,-35.472 -23.366,-54.041 25.551,-20.536 73.827,-35.014 73.827,-35.014 0,0 -67.903,8.029 -110.787,-2.587 -1.878,-20.769 -5.722,-41.814 -3.105,-61.769 32.515,-12.136 82.103,-13.165 106.695,-12.819 -19.73,-0.93 -55.273,-3.828 -83.376,-12.749 -11.721,-26.495 -5.378,-57.211 4.788,-84.887 42.071,-12.484 98.599,0.336 116.686,5.091 -10.988,-3.202 -35.377,-11.077 -53.571,-22.536 2.123,-20.679 8.602,-40.242 16.152,-59.478 37.86,-7.24 89.64,2.087 89.64,2.087 36.73,-64.338 164.314,-204.362 228.106,-260.51 63.792,-56.146 185.577,-139.095 288.03,-127.281 102.454,11.815 181.711,-7.947 349.89,202.76 168.179,210.706 168.675,251.17 168.675,251.17 0,0 21.61,-4.301 42.592,0.02 8.182,22.384 18.875,44.224 20.814,68.253 0.061,0.751 0.303,1.367 0.539,1.986 -16.417,11.307 -38.623,14.685 -38.623,14.685 l 54.324,0.008 c 0,0 31.992,-0.381 61.391,5.264 5.837,22.251 8.553,45.066 7.026,68.397 C 38.209,8.865 -3.62,-1.401 0,0" /></g><g
           transform="translate(342.3843,1238.5831)"
           id="g364"><path
             id="path366"
             style="fill:#f17aa9;fill-opacity:1;fill-rule:nonzero;stroke:none"
             d="M 0,0 C 22.097,-8.25 52.06,-11.385 76.737,-12.423 59.621,-4.005 55.135,59.554 66.56,67.222 45.849,67.519 22.056,66.444 3.109,61.755 1.232,40.991 -2.613,19.951 0,0" /></g><g
           transform="translate(411.8847,1222.545)"
           id="g368"><path
             id="path370"
             style="fill:#f17aa9;fill-opacity:1;fill-rule:nonzero;stroke:none"
             d="m 0,0 c 0,0 -31.698,-4.947 -46.176,-9.54 -11.717,-26.478 -5.391,-57.174 4.764,-84.837 21.436,-6.373 46.615,-6.195 68.558,-3.845 0,0 -35.464,36.464 -27.146,98.222" /></g><g
           transform="translate(472.8086,1128.6051)"
           id="g372"><path
             id="path374"
             style="fill:#f17aa9;fill-opacity:1;fill-rule:nonzero;stroke:none"
             d="m 0,0 c -11.889,-4.132 -26.945,-10.225 -39.199,-17.941 2.122,-20.681 8.603,-40.245 16.153,-59.482 20.448,-3.908 44.944,-2.994 63.165,-1.312 C 11.642,-68.74 1.126,-0.067 0,0" /></g><g
           transform="translate(1710.4436,1367.7625)"
           id="g376"><path
             id="path378"
             style="fill:#f17aa9;fill-opacity:1;fill-rule:nonzero;stroke:none"
             d="m 0,0 c -15.415,1.943 -31.087,-0.524 -42.398,-3.151 11.056,-38.638 3.412,-80.094 6.698,-78.876 9.039,3.352 17.602,6.405 22.363,7.787 5.356,1.556 19.266,7.185 31.681,15.241 C 16.824,-38.271 10.83,-17.557 0,0" /></g><g
           transform="translate(1677.7837,1442.2462)"
           id="g380"><path
             id="path382"
             style="fill:#f17aa9;fill-opacity:1;fill-rule:nonzero;stroke:none"
             d="m 0,0 c -11.861,-1.099 -25.087,-5.324 -35.841,-9.585 10.467,-3.476 20.19,-65.634 18.523,-66.66 3.559,2.189 7.815,4.806 12.996,7.992 11.196,6.885 20.737,15.128 27.314,23.619 C 16.66,-29.433 9.476,-13.63 0,0" /></g><g
           transform="translate(441.3097,1387.8586)"
           id="g384"><path
             id="path386"
             style="fill:#f17aa9;fill-opacity:1;fill-rule:nonzero;stroke:none"
             d="m 0,0 c -10.431,2.867 -23.193,5.116 -35.501,4.103 -11.149,-16.019 -16.86,-35.452 -23.35,-54.009 10.211,-8.207 24.038,-15.45 36.98,-21.185 C -25.166,-65.59 -11.782,-6.374 0,0" /></g><g
           transform="translate(1187.5397,1946.3163)"
           id="g388"><path
             id="path390"
             style="fill:#f17aa9;fill-opacity:1;fill-rule:nonzero;stroke:none"
             d="m 0,0 c -17.031,-4.995 -41.407,-16.106 -75.943,-36.137 -0.667,-0.387 -1.305,-0.798 -1.967,-1.189 0.82,0.009 37.316,-10.523 51.676,-32.166 19.092,15.145 42.001,31.746 51.676,37.05 C 17.413,-21.55 9.228,-10.128 0,0" /></g><g
           transform="translate(1616.703,1119.4557)"
           id="g392"><path
             id="path394"
             style="fill:#f17aa9;fill-opacity:1;fill-rule:nonzero;stroke:none"
             d="m 0,0 c 8.181,22.377 18.867,44.209 20.806,68.23 0.06,0.747 0.302,1.357 0.534,1.973 -6.54,4.504 -13.98,7.774 -20.591,10.046 0,0 -21.008,6.915 -28.832,6.808 C -22.174,74.479 -40.439,8.033 -53.789,2.626 -46.961,0.142 -42.678,-0.741 -28.614,-1.689 -20.655,-2.19 -10.254,-2.111 0,0" /></g><g
           transform="translate(958.3699,1851.0835)"
           id="g396"><path
             id="path398"
             style="fill:#f17aa9;fill-opacity:1;fill-rule:nonzero;stroke:none"
             d="m 0,0 c -4.381,-6.93 -9.334,-16.035 -14.952,-27.893 -4.204,-8.876 -7.804,-17.634 -10.905,-26.182 14.43,9.267 49.587,8.666 50.616,7.36 3.357,17.234 6.308,34.357 6.755,43.283 C 20.796,-0.805 10.315,0.231 0,0" /></g><g
           transform="translate(1660.3477,1204.3572)"
           id="g400"><path
             id="path402"
             style="fill:#f17aa9;fill-opacity:1;fill-rule:nonzero;stroke:none"
             d="m 0,0 c 0,0 27.987,-0.074 54.751,5.13 5.863,22.299 8.598,45.165 7.066,68.548 -23.58,5.013 -48.254,1.539 -48.232,1.458 C 17.83,59.57 0,0 0,0" /></g><g
           transform="translate(1267.0933,1810.3894)"
           id="g404"><path
             id="path406"
             style="fill:#f17aa9;fill-opacity:1;fill-rule:nonzero;stroke:none"
             d="m 0,0 c -19.144,-1.978 -43.257,-7.414 -67.294,-13.923 -0.338,-0.189 -0.674,-0.381 -1.012,-0.568 8.138,-0.172 32.44,-52.882 28.631,-57.368 5.644,2.003 10.93,3.837 15.629,5.403 10.765,3.588 22.469,9.088 33.083,15.437 C 6.608,-33.944 3.201,-17.007 0,0" /></g><g
           transform="translate(1258.9487,1898.7185)"
           id="g408"><path
             id="path410"
             style="fill:#f17aa9;fill-opacity:1;fill-rule:nonzero;stroke:none"
             d="m 0,0 c -20.519,-4.696 -43.182,-13.479 -65.835,-24.187 11.172,-9.176 28.253,-60.866 27.257,-62.444 0,0 48.049,18.528 71.111,32.959 C 22.356,-35.317 12.204,-17.005 0,0" /></g><g
           transform="translate(879.6869,807.8632)"
           id="g412"><path
             id="path414"
             style="fill:#e2aacd;fill-opacity:1;fill-rule:nonzero;stroke:none"
             d="m 0,0 c -2.088,32.721 13.823,64.929 37.586,87.519 23.762,22.591 54.658,36.449 86.286,45.09 58.825,16.071 122.196,15.12 180.512,-2.71 26.676,-8.156 53.26,-20.492 70.878,-42.119 27.582,-33.86 26.664,-85.3 4.721,-123.059 -41.02,-70.587 -140.817,-95.624 -217.302,-94.897 C 95.766,-129.54 4.594,-71.984 0,0" /></g><g
           id="g416"><g
             id="g418" /><g
             id="g430"><g
               style="opacity:0.10000598"
               id="g428"
               clip-path="url(#clipPath422)"><g
                 id="g426"
                 transform="translate(1127.3198,1698.0742)"><path
                   id="path424"
                   style="fill:#000000;fill-opacity:1;fill-rule:nonzero;stroke:none"
                   d="m 0,0 c -12.411,-6.124 -25.23,-13.803 -40.713,-24.064 152.393,11.913 290.114,-18.628 310.145,-20.487 27.756,-2.576 55.289,-11.374 80.994,-22.982 -9.925,6.034 -20.432,11.686 -31.724,16.737 C 190.123,6.727 36.375,2.061 0,0 m -26.294,-1001.298 c -61.672,3.208 -123.766,14.156 -179.479,40.797 -77.953,37.276 -138.626,102.727 -191.878,170.774 -51.659,66.012 -92.78,137.097 -122.496,215.476 -21.423,-17.129 -94.245,-59.009 -116.923,-57.197 -3.102,0.248 -16.377,30.788 -22.472,46.032 -1.663,4.159 53.018,25.013 81.553,35.883 -29.766,-3.62 -107.718,-8.263 -137.447,-4.35 -8.26,1.088 -19.496,58.356 -12.675,61.222 24.361,10.238 68.56,15.827 100.103,20.747 -34.796,6.108 -87.273,15.037 -114.173,16.619 -6.162,0.363 -6.778,49.071 -4.827,50.019 14.322,6.961 88.191,2.175 124.291,1.289 0,0 -90.937,36.066 -97.717,45.105 -2.175,2.9 13.132,41.323 15.586,42.407 6.468,2.859 84.451,-30.446 110.79,-47.586 -2.677,86.485 -15.05,178.62 117.052,249.466 84.288,45.201 201.206,73.052 296.598,79.963 -10.611,62.699 -4.021,128.195 18.681,187.584 -2.419,0.088 -4.829,0.111 -7.229,0.057 -4.378,-6.927 -9.332,-16.042 -14.946,-27.893 -34.796,-73.458 -28.996,-139.182 -28.996,-139.182 0,0 -71.524,0 -158.514,-28.997 -86.989,-28.996 -113.569,-34.969 -210.223,-100.694 -96.655,-65.726 -81.673,-174.666 -81.673,-174.666 0,0 -30.276,14.624 -58.193,12.325 -11.159,-16.026 -16.872,-35.472 -23.366,-54.041 25.55,-20.536 73.826,-35.014 73.826,-35.014 0,0 -67.902,8.03 -110.786,-2.587 -1.878,-20.769 -5.723,-41.814 -3.106,-61.769 32.515,-12.136 82.103,-13.165 106.695,-12.819 -19.729,-0.93 -55.272,-3.828 -83.376,-12.749 -11.721,-26.495 -5.377,-57.211 4.788,-84.887 42.071,-12.484 98.6,0.336 116.686,5.091 -10.987,-3.202 -35.376,-11.077 -53.57,-22.536 2.122,-20.679 8.601,-40.242 16.151,-59.478 37.86,-7.24 89.641,2.087 89.641,2.087 36.729,-64.337 164.313,-204.362 228.105,-260.509 63.792,-56.147 185.577,-139.096 288.031,-127.282 62.308,7.186 116.04,2.698 186.408,45.469 -8.469,-2.641 -17.049,-4.973 -25.768,-6.903 -37.667,-8.336 -76.625,-9.277 -115.152,-7.273 m 526.849,486.401 c -6.283,-16.759 -20.238,-54.261 -24.405,-54.45 -10.632,-0.483 -46.153,-2.242 -69.16,-2.291 13.174,-2.924 26.35,-5.848 39.524,-8.772 0.25,1.202 0.268,1.749 0.268,1.749 0,0 21.61,-4.301 42.593,0.02 8.182,22.385 18.875,44.224 20.814,68.253 0.061,0.749 0.303,1.363 0.537,1.981 -2.273,1.565 -4.644,2.995 -7.064,4.268 0.44,-0.449 -2.881,-10.156 -3.107,-10.758 M -79.294,149.297 c 38.93,35.915 88.747,57.265 137.509,77.945 4.701,1.993 10.006,3.782 15.318,4.879 -4.246,5.552 -8.647,10.999 -13.313,16.121 C 43.189,243.247 18.813,232.136 -15.723,212.105 -94.544,166.388 -137.359,91.123 -150.478,64.899 c -2.705,-8.24 -5.477,-16.458 -8.327,-24.649 22.92,38.909 46.321,78.426 79.511,109.047 m 649.832,-566.852 c 4.957,-0.979 0.559,-54.359 0.559,-54.359 -24.044,-7.133 -97.832,-18.415 -132.401,-13.665 8.816,-2.314 21.749,-7.495 33.637,-7.495 h 54.096 c 0,0 31.991,-0.698 61.39,4.947 5.838,22.254 8.553,44.913 7.026,68.247 -7.914,1.636 -16.233,2.188 -24.307,2.325 M -70.761,85.089 c 53.956,36.793 112.389,67.014 173.598,89.785 12.542,4.667 25.418,9.002 38.561,11.194 -3.138,4.936 -6.356,9.822 -9.772,14.581 C 75.177,187.743 2.39,143.683 -41.201,114.741 -51.423,105.231 -61.363,95.416 -70.761,85.089 m 595.818,-422.136 c 4.482,2.756 11.154,6.86 21.084,12.966 11.197,6.885 20.738,15.128 27.314,23.619 -6.335,15.211 -13.525,31.027 -23.011,44.663 -0.595,-0.056 -1.171,-0.069 -1.774,-0.14 0.309,-1.089 0.392,-2.241 0.796,-3.287 8.599,-22.295 8.413,-41.215 8.413,-41.215 -15.343,-14.261 -65.697,-42.663 -90.67,-56.909 18.504,4.102 36.794,11.849 58.247,19.795 -1.508,-0.395 -1.771,-0.336 -0.399,0.508 m 40.011,7.06 c 15.579,-5.568 22.119,-45.686 20.06,-51.32 0,0 -69.993,-38.901 -103.34,-47.576 19.009,2.289 41.531,7.556 60.543,9.847 -13.078,-1.495 -21.608,-3.461 -19.89,-2.796 13.376,5.178 37.88,14.532 47.345,17.281 5.357,1.556 19.267,7.184 31.682,15.24 -1.52,20.733 -7.517,41.452 -18.354,59.013 -6.296,0.792 -12.636,0.861 -18.704,0.466 0.215,-0.07 0.444,-0.079 0.658,-0.155 M 58.479,99.405 C 38.285,92.608 18.409,85.209 -0.9,76.747 Z M -9.208,72.984 C -34.33,61.449 -58.422,47.988 -80.783,31.313 c 62.824,28.689 128.681,50.731 196.116,65.643 8.716,1.928 17.606,3.711 26.496,4.509 -0.688,3.612 -1.374,7.225 -2.054,10.842 C 95.958,107.795 26.095,85.165 -9.208,72.984 m 70.577,-187.63 c -20.032,-11.426 -35.097,-33.521 -33.143,-56.5 0.749,-14.966 30.717,-11.182 46.076,-16.774 -59.426,-6.82 -110.451,-59.04 -115.892,-118.607 -12.005,31.117 -29.948,60.573 -55.63,81.854 -25.681,21.281 -59.697,33.69 -92.74,29.156 12.689,7.925 28.697,7.719 42.915,12.373 14.218,4.655 28.144,19.074 22.581,32.962 -3.708,10.706 -18.057,12.202 -29.356,11.351 -56.292,-4.238 -111.741,-19.431 -162.331,-44.479 -41.34,-20.469 -92.425,-38.189 -112.435,-79.753 -8.937,-18.562 -9.073,-23.752 -18.009,-42.314 24.978,13.425 59.493,23.479 70.01,24.516 -47.135,-66.688 -29.863,-165.087 10.848,-222.325 28.157,-39.587 67.42,-53.318 108.675,-63.126 41.256,-9.809 86.926,-4.625 122.212,18.894 -3.497,-13.799 -10.999,-21.468 -21.673,-30.887 -51.942,-45.838 -126.611,-64.531 -194.023,-48.574 9.087,23.451 24.424,44.447 44,60.234 -52.45,-4.708 -91.897,-75.439 -79.982,-130.49 2.402,19.027 13.319,43.792 31.772,49.014 23.608,-48.029 53.325,-103.501 90.109,-142.373 34.3,-36.246 76.946,-63.762 121.752,-85.731 90.7,-44.469 167.066,-61.296 268.08,-61.296 30.607,0 39.619,8.408 42.994,10.229 6.35,3.428 -70.616,77.868 -81.81,131.32 -2.36,11.272 -10.795,20.673 -12.173,32.106 -1.255,10.408 0.838,20.896 2.922,31.17 6.214,30.651 -12.349,67.514 -6.134,98.164 1.295,-2.243 3.227,-4.113 5.511,-5.335 -21.507,37.182 -36.901,77.883 -45.426,119.982 1.109,-0.948 3.85,-1.943 2.827,-2.828 40.482,-1.585 156.731,-52.814 242.822,38.187 29.26,30.929 46.167,77.642 48.945,120.128 2.777,42.486 -20.339,92.728 -48.945,124.263 26.754,1.046 71.785,-0.887 98.539,0.158 -71.8,63.679 -151.057,130.632 -246.788,137.399 -23.005,1.626 -47.067,-0.642 -67.1,-12.068" /></g></g></g></g><g
           transform="translate(1224.0181,1437.2583)"
           id="g432"><path
             id="path434"
             style="fill:#4d3f82;fill-opacity:1;fill-rule:nonzero;stroke:none"
             d="m 0,0 c 211.94,65.153 250.426,-200.237 82.514,-261.577 -59.634,-21.785 -131.538,-2.018 -167.339,26.897 -56.47,45.607 -57.288,135.017 15.358,171.556" /></g><g
           id="g436"><g
             id="g438" /><g
             id="g450"><g
               style="opacity:0.19999701"
               id="g448"
               clip-path="url(#clipPath442)"><g
                 id="g446"
                 transform="translate(1410.9442,1322.0186)"><path
                   id="path444"
                   style="fill:#000000;fill-opacity:1;fill-rule:nonzero;stroke:none"
                   d="m 0,0 c -3.618,-30.883 -15.889,-62.02 -38.09,-87.51 -11.509,-13.214 -26.053,-25.065 -43.451,-31.079 32.492,19.051 50.123,52.669 60.182,85.186 9.756,31.536 13.652,65.313 6.954,95.925 -25.52,49.34 -83.817,79.987 -172.521,52.718 l -69.466,-63.124 c -72.647,-36.539 -71.829,-125.949 -15.359,-171.556 35.801,-28.915 107.704,-48.682 167.339,-26.897 C -32.222,-119.965 1.783,-55.881 0.29,3.441 0.178,2.293 0.134,1.148 0,0" /></g></g></g></g><g
           transform="translate(1374.417,1422.932)"
           id="g452"><path
             id="path454"
             style="fill:#304254;fill-opacity:1;fill-rule:nonzero;stroke:none"
             d="m 0,0 c -17.711,32.154 -47.623,58.079 -77.525,68.149 -44.629,15.03 -97.687,9.053 -142.673,-14.767 -42.644,-22.581 -45.741,-53.827 -40.533,-59.853 L 2.825,-103.663 c 16.788,11.972 13.482,51.896 12.674,57.907 C 14.132,-35.572 10.442,-20.017 0,0" /></g><g
           id="g456"><g
             id="g458" /><g
             id="g470"><g
               style="opacity:0.39999402"
               id="g468"
               clip-path="url(#clipPath462)"><g
                 id="g466"
                 transform="translate(1375.681,1401.4421)"><path
                   id="path464"
                   style="fill:#000000;fill-opacity:1;fill-rule:nonzero;stroke:none"
                   d="m 0,0 c -7.253,-5.902 -14.676,-11.662 -22.519,-16.922 -3.259,-2.186 -6.44,3.136 -3.174,5.313 8.131,5.42 15.801,11.395 23.307,17.486 -0.603,1.458 -1.135,2.95 -1.781,4.386 -8.265,-8.417 -16.984,-16.392 -27.402,-22.186 -3.399,-1.89 -6.624,3.446 -3.196,5.339 10.636,5.874 19.463,14.035 27.857,22.61 -11.901,23.73 -29.901,44.143 -51.731,56.5 -30.819,17.444 -68.647,22.449 -105.141,16.785 0.914,-10.224 2.115,-20.414 4.065,-30.531 0.811,-4.214 -5.551,-6.225 -6.369,-1.98 -2.009,10.43 -3.284,20.934 -4.253,31.476 -0.472,-0.091 -0.958,-0.132 -1.429,-0.226 -0.995,-0.199 -5.437,-1.606 -11.168,-3.638 3.215,-10.499 5.906,-21.142 8.894,-31.695 1.187,-4.191 -5.27,-6.204 -6.459,-2.013 -2.96,10.448 -5.626,20.984 -8.799,31.382 -2.551,-0.961 -5.189,-1.986 -7.807,-3.059 1.866,-5.457 4.168,-10.776 6.437,-16.052 1.73,-4.025 -4.84,-5.975 -6.554,-1.994 -2.173,5.046 -4.375,10.132 -6.205,15.338 -4.499,-2.021 -8.538,-4.073 -11.312,-5.946 -17.833,-12.046 -31.684,-28.545 -44.803,-46.039 -1.135,-1.514 -2.845,-1.954 -4.272,-1.601 -0.072,-3.616 0.635,-6.344 1.819,-7.714 L 1.561,-82.173 c 1.437,1.025 2.678,2.313 3.834,3.705 C 11.775,-52.435 9.082,-24.865 0,0" /></g></g></g></g><g
           transform="translate(1278.2523,1190.7115)"
           id="g472"><path
             id="path474"
             style="fill:#e8f6fd;fill-opacity:1;fill-rule:nonzero;stroke:none"
             d="M 0,0 C 164.707,50.761 118.784,316.326 -60.567,291.878 -146.845,280.117 -200.304,210.356 -189.641,121.94 -177.92,24.743 -91.304,-28.139 0,0" /></g><g
           id="g476"><g
             id="g478" /><g
             id="g490"><g
               style="opacity:0.05000311"
               id="g488"
               clip-path="url(#clipPath482)"><g
                 id="g486"
                 transform="translate(1366.1097,1400.1359)"><path
                   id="path484"
                   style="fill:#000000;fill-opacity:1;fill-rule:nonzero;stroke:none"
                   d="m 0,0 c 6.268,-25.507 7.675,-52.411 3.864,-76.526 -17.928,-113.46 -156.853,-156.713 -230.229,-74.144 -42.218,47.507 -35.068,128.67 1.108,182.034 13.539,19.973 29.743,34.423 47.605,44.503 -68.806,-21.999 -109.245,-85.416 -99.847,-163.352 11.722,-97.197 98.337,-150.078 189.642,-121.939 C 8.872,-179.613 32.926,-75.73 0,0" /></g></g></g></g><g
           transform="translate(1281.9653,1294.2646)"
           id="g492"><path
             id="path494"
             style="fill:#3481b9;fill-opacity:1;fill-rule:nonzero;stroke:none"
             d="M 0,0 C 31.536,92.842 -61.534,155.497 -119.583,86.686 -184.308,-7.39 -59.415,-114.988 0,0" /></g><g
           transform="translate(1145.2195,1313.1597)"
           id="g496"><path
             id="path498"
             style="fill:#67a5c6;fill-opacity:1;fill-rule:nonzero;stroke:none"
             d="M 0,0 C 0.84,-5.783 2.207,-11.38 4.107,-16.7 19.813,-9.68 34.657,-0.658 48.002,10.32 32.686,4.269 16.405,0.811 0,0 m 15.953,-38.867 c 3.949,-5.327 8.455,-10.085 13.395,-14.16 12.482,20.616 24.311,41.645 35.27,63.141 C 48.396,-6.213 32.174,-22.54 15.953,-38.867 m 45.2,-29.005 c 1.912,21.467 3.822,42.934 5.733,64.401 -6.354,-20.22 -12.708,-40.439 -19.062,-60.659 4.315,-1.745 8.774,-3.002 13.329,-3.742 m 46.742,12.693 c 6.435,4.943 12.638,11.333 18.448,19.376 -13.784,6.456 -27.878,12.226 -42.22,17.264 7.924,-12.214 15.848,-24.427 23.772,-36.64 M 77.907,-68.145 c 4.428,0.585 8.87,1.65 13.282,3.345 -4.616,17.331 -9.231,34.662 -13.847,51.993 0.188,-18.446 0.377,-36.892 0.565,-55.338 M 5.532,45.777 C 3.056,39.411 1.327,33.077 0.307,26.825 17.006,26.228 33.705,25.633 50.404,25.036 35.447,31.95 20.49,38.863 5.532,45.777 M 142.597,27.03 c -0.685,7.112 -2.15,13.824 -4.283,20.081 C 119.771,30.672 101.227,14.233 82.683,-2.207 102.252,8.368 122.26,18.089 142.597,27.03 m -14.48,40.379 C 124.537,72.496 120.41,77.002 115.88,80.89 102.499,55.737 89.118,30.584 75.737,5.431 92.063,27.05 109.599,47.708 128.117,67.409 M 56.07,25.505 C 49.582,45.05 41.826,64.156 32.882,82.667 28.35,79.29 23.94,75.247 19.689,70.558 23.853,66.082 27.745,61.306 31.27,57.354 40.223,47.318 48.516,36.672 56.07,25.505 M 78.978,96.671 C 78.473,72.11 77.219,47.564 75.134,23.089 82.419,46.242 89.029,69.61 95.141,93.112 89.947,95.009 84.523,96.19 78.978,96.671 M 67.823,20.009 C 65.465,45.284 63.919,70.635 63.12,96.011 57.229,95.006 51.315,93.161 45.482,90.361 54.828,67.593 62.369,44.055 67.823,20.009 m 71.521,-30.284 c 1.276,4.851 2.144,9.583 2.762,14.229 -17.955,-2.239 -35.682,-6.373 -52.725,-12.552 16.671,0.499 33.393,0.146 49.963,-1.677" /></g><g
           transform="translate(1265.2521,1341.3981)"
           id="g500"><path
             id="path502"
             style="fill:#000000;fill-opacity:1;fill-rule:nonzero;stroke:none"
             d="M 0,0 C 13.317,-74.803 -81.652,-104.747 -96.677,-27.063 -110.994,46.963 -13.48,75.723 0,0" /></g><g
           transform="translate(1218.5946,1353.6327)"
           id="g504"><path
             id="path506"
             style="fill:#ffffff;fill-opacity:1;fill-rule:nonzero;stroke:none"
             d="m 0,0 c 1.021,-10.299 7.508,-20.329 17.141,-23.62 9.329,-3.187 19.737,0.257 27.903,5.855 19.455,13.337 33.93,54.269 4.165,65.468 C 23.792,57.267 -2.305,23.258 0,0" /></g><g
           id="g508"><g
             id="g510" /><g
             id="g522"><g
               style="opacity:0.80000299"
               id="g520"
               clip-path="url(#clipPath514)"><g
                 id="g518"
                 transform="translate(1238.9231,1433.449)"><path
                   id="path516"
                   style="fill:#ffffff;fill-opacity:1;fill-rule:nonzero;stroke:none"
                   d="m 0,0 c 58.842,-2.036 98.368,-43.534 95.615,-103.332 -0.258,-5.603 0.105,-11.461 2.591,-16.384 2.486,-4.923 8.735,-8.318 13.484,-5.463 2.633,1.582 4.105,4.591 5.294,7.476 14.892,36.114 7.517,79.638 -15.987,109.506 C 79.073,19.665 43.837,35.845 8.925,37.759 -27.502,39.757 -38.699,1.339 0,0" /></g></g></g></g><g
           transform="translate(872.92,1401.5623)"
           id="g524"><path
             id="path526"
             style="fill:#4d3f82;fill-opacity:1;fill-rule:nonzero;stroke:none"
             d="m 0,0 c -191.432,-52.014 -100.882,-283.894 70.115,-268.753 63.055,5.583 114.74,34.157 136.793,89.403 32.814,82.204 -20.452,132.766 -92.558,168.091" /></g><g
           id="g528"><g
             id="g530" /><g
             id="g542"><g
               style="opacity:0.19999701"
               id="g540"
               clip-path="url(#clipPath534)"><g
                 id="g538"
                 transform="translate(987.2704,1390.3031)"><path
                   id="path536"
                   style="fill:#000000;fill-opacity:1;fill-rule:nonzero;stroke:none"
                   d="m 0,0 -114.35,11.259 c -42.022,-11.418 -70.448,-31.505 -87.426,-55.742 -12.347,-44.035 -5.251,-91.308 19.484,-128.18 25.806,-38.467 70.336,-65.038 119.789,-71.583 -42.104,2.101 -82.234,17.915 -111.821,44.065 -20.456,18.078 -35.767,41.015 -44.622,66.243 14.057,-68.365 82.728,-131.7 174.71,-123.556 63.056,5.583 114.741,34.157 136.794,89.403 C 125.371,-85.886 72.105,-35.324 0,0" /></g></g></g></g><g
           transform="translate(957.1399,1480.8414)"
           id="g544"><path
             id="path546"
             style="fill:#304254;fill-opacity:1;fill-rule:nonzero;stroke:none"
             d="m 0,0 c -45.883,8.847 -95.271,-1.128 -131.797,-29.223 -26.074,-20.055 -46.719,-57.214 -52.07,-96.481 -1.442,-17.694 -0.56,-37.841 1.542,-47.267 1.382,-6.201 12.602,-46.443 33.54,-50.938 L 51.229,-41.396 C 53.523,-34.585 41.645,-8.03 0,0" /></g><g
           id="g548"><g
             id="g550" /><g
             id="g562"><g
               style="opacity:0.39999402"
               id="g560"
               clip-path="url(#clipPath554)"><g
                 id="g558"
                 transform="translate(998.0593,1452.557)"><path
                   id="path556"
                   style="fill:#000000;fill-opacity:1;fill-rule:nonzero;stroke:none"
                   d="m 0,0 c -13.005,9.844 -25.838,17.068 -39.622,21.341 1.94,-19.142 -0.661,-38.654 1.587,-57.803 0.487,-4.149 -5.574,-5.306 -6.064,-1.129 -2.354,20.056 0.578,40.645 -1.952,60.671 -2.819,0.67 -5.669,1.257 -8.587,1.682 0.195,-17.381 6.052,-34.683 9.107,-51.787 0.741,-4.148 -5.322,-5.282 -6.064,-1.129 -3.174,17.772 -9.215,35.709 -9.287,53.767 -7.432,0.6 -15.242,0.411 -23.581,-0.64 3.745,-17.543 10.911,-34.338 18.095,-50.826 1.687,-3.873 -3.802,-6.667 -5.489,-2.794 -7.486,17.181 -14.754,34.554 -18.626,52.746 -1.183,-0.201 -2.281,-0.271 -3.486,-0.506 -3.109,-0.607 -6.248,-1.386 -9.384,-2.167 5.841,-16.385 14.309,-31.675 23.425,-46.47 2.218,-3.6 -3.3,-6.349 -5.489,-2.795 -9.36,15.191 -17.917,30.889 -23.874,47.694 -3.173,-0.894 -6.349,-1.795 -9.512,-2.847 6.058,-12.375 14.079,-23.524 22.743,-34.261 2.642,-3.274 -1.917,-7.483 -4.556,-4.213 -9.165,11.358 -17.704,23.217 -24.027,36.4 -20.079,-7.388 -39.339,-18.134 -54.406,-32.415 -23.671,-22.436 -36.154,-50.055 -39.097,-80.229 0,0 9.888,-0.343 14.381,2.132 8.22,4.53 15.027,-9.382 6.865,-13.879 -6.84,-3.769 -14.48,-5.185 -22.023,-6.147 0.304,-31.414 10.888,-61.611 29.219,-80.021 L 10.31,-13.111 c 0.11,0.327 0.157,0.739 0.2,1.154 C 6.795,-8.071 3.415,-4.001 0,0" /></g></g></g></g><g
           transform="translate(1015.277,1173.4689)"
           id="g564"><path
             id="path566"
             style="fill:#e8f6fd;fill-opacity:1;fill-rule:nonzero;stroke:none"
             d="M 0,0 C 154.506,80.335 48.545,345.974 -126.629,290.239 -210.899,263.427 -249.067,182.482 -218.449,93.253 -184.79,-4.838 -85.65,-44.533 0,0" /></g><g
           id="g568"><g
             id="g570" /><g
             id="g582"><g
               style="opacity:0.05000311"
               id="g580"
               clip-path="url(#clipPath574)"><g
                 id="g578"
                 transform="translate(1056.7002,1404.0925)"><path
                   id="path576"
                   style="fill:#000000;fill-opacity:1;fill-rule:nonzero;stroke:none"
                   d="m 0,0 c 12.048,-25.198 19.513,-52.663 21.096,-78.143 7.447,-119.89 -122.776,-188.101 -215.254,-115.579 -53.208,41.726 -64.252,126.521 -39.807,187.637 9.149,22.873 22.223,40.514 37.951,53.938 -64.367,-34.378 -90.847,-106.571 -63.858,-185.224 33.658,-98.09 132.799,-137.786 218.449,-93.252 C 49.316,-183.444 50.193,-72.373 0,0" /></g></g></g></g><g
           transform="translate(985.9568,1299.2247)"
           id="g584"><path
             id="path586"
             style="fill:#3481b9;fill-opacity:1;fill-rule:nonzero;stroke:none"
             d="M 0,0 C 6.438,100.494 -99.551,141.954 -137.779,59.478 -175.919,-49.905 -27.614,-129.158 0,0" /></g><g
           transform="translate(849.1353,1286.6769)"
           id="g588"><path
             id="path590"
             style="fill:#67a5c6;fill-opacity:1;fill-rule:nonzero;stroke:none"
             d="m 0,0 c 2.305,-5.613 5.071,-10.918 8.278,-15.823 13.34,10.67 25.331,23.151 35.37,37.25 C 30.435,11.821 15.619,4.595 0,0 m 25.436,-35.35 c 5.187,-4.439 10.763,-8.178 16.583,-11.131 6.716,23.579 12.695,47.42 17.714,71.531 C 48.3,4.917 36.868,-15.217 25.436,-35.35 m 51.106,-18.705 c -3.703,21.995 -7.407,43.991 -11.11,65.987 -0.906,-21.767 -1.812,-43.535 -2.718,-65.303 4.614,-0.758 9.241,-0.992 13.828,-0.684 m 41.818,23.518 c 4.932,6.447 9.266,14.293 12.793,23.709 -14.967,3.306 -30.057,5.85 -45.197,7.603 10.802,-10.437 21.603,-20.874 32.404,-31.312 M 92.777,-50.468 c 4.122,1.608 8.132,3.702 11.951,6.421 -8.932,16.338 -17.864,32.676 -26.795,49.015 4.948,-18.479 9.896,-36.957 14.844,-55.436 M -6.49,47.241 C -7.234,40.277 -7.266,33.518 -6.635,27.006 9.631,30.256 25.897,33.507 42.163,36.758 25.945,40.252 9.727,43.746 -6.49,47.241 m 137.09,12.77 c -2.499,6.983 -5.647,13.385 -9.321,19.176 C 107.635,58.406 93.991,37.625 80.347,16.843 96.495,31.972 113.288,46.345 130.6,60.011 m -24.405,37.208 c -4.769,4.282 -9.915,7.856 -15.29,10.715 C 84.493,79.593 78.082,51.252 71.671,22.911 81.837,48.382 93.419,73.167 106.195,97.219 M 47.509,38.534 C 36.199,56.665 23.778,74.061 10.365,90.587 6.865,86.151 3.655,81.075 0.765,75.387 5.939,71.852 10.928,67.953 15.351,64.798 26.582,56.784 37.335,48.006 47.509,38.534 m 3.714,76.74 C 57.081,90.495 62.214,65.56 66.527,40.503 c 1.046,24.927 1.385,49.915 1.209,74.923 -5.501,0.707 -11.039,0.644 -16.513,-0.152 M 60.269,35.725 C 51.463,60.56 43.42,85.659 36.092,110.956 30.668,108.589 25.439,105.373 20.535,101.217 35.435,80.509 48.793,58.613 60.269,35.725 m 76.832,-13.923 c -0.022,5.165 -0.408,10.117 -1.012,14.924 C 119.344,30.34 103.308,22.103 88.461,11.97 c 15.956,4.343 32.181,7.843 48.64,9.832" /></g><g
           transform="translate(953.4462,1340.6862)"
           id="g592"><path
             id="path594"
             style="fill:#000000;fill-opacity:1;fill-rule:nonzero;stroke:none"
             d="M 0,0 C 31.198,-70.452 -47.574,-120.159 -81.061,-47.249 -112.971,22.226 -31.582,71.319 0,0" /></g><g
           transform="translate(908.5917,1343.6105)"
           id="g596"><path
             id="path598"
             style="fill:#ffffff;fill-opacity:1;fill-rule:nonzero;stroke:none"
             d="M 0,0 C 3.757,-10.415 12.879,-19.253 23.333,-20.369 33.457,-21.45 42.89,-15.413 49.518,-7.681 65.311,10.743 68.805,56.539 36.228,61.055 8.408,64.912 -8.484,23.519 0,0" /></g><g
           id="g600"><g
             id="g602" /><g
             id="g614"><g
               style="opacity:0.80000299"
               id="g612"
               clip-path="url(#clipPath606)"><g
                 id="g610"
                 transform="translate(921.0889,1416.7247)"><path
                   id="path608"
                   style="fill:#ffffff;fill-opacity:1;fill-rule:nonzero;stroke:none"
                   d="m 0,0 c 59.733,7.93 108.878,-28.068 119.548,-90.113 1,-5.814 2.683,-11.784 6.294,-16.43 3.61,-4.646 10.669,-7.077 14.81,-3.328 2.297,2.078 3.104,5.427 3.653,8.601 6.883,39.725 -10.331,83.286 -40.722,110.039 C 75.234,33.724 36.101,44.38 0.502,40.403 -36.642,36.252 -39.285,-5.215 0,0" /></g></g></g></g><g
           transform="translate(1243.8025,1704.3234)"
           id="g616"><path
             id="path618"
             style="fill:#603915;fill-opacity:1;fill-rule:nonzero;stroke:none"
             d="m 0,0 c -19.521,-34.272 -21.037,-47.723 -30.352,-76.577 22.13,34.725 30.193,48.28 63.988,76.558 -8.265,-11.563 -12.118,-26.354 -14.695,-45.214 5.841,6.21 12.082,10.863 26.58,20.584 20.858,-16.997 32.227,-28.04 53.084,-45.037 62.554,-50.974 126.579,-103.864 156.102,-175.672 -97.641,20.173 -184.86,63.702 -289.297,65.679 -16.777,0.317 -45.564,-2.937 -50.826,12.711 -4.009,11.921 9.11,36.656 13.752,49.076 C -55.43,-74.46 -38.198,-39.82 0,0" /></g><g
           id="g620"><g
             id="g622" /><g
             id="g634"><g
               style="opacity:0.39999402"
               id="g632"
               clip-path="url(#clipPath626)"><g
                 id="g630"
                 transform="translate(1192.4421,1578.8009)"><path
                   id="path628"
                   style="fill:#000000;fill-opacity:1;fill-rule:nonzero;stroke:none"
                   d="M 0,0 C 12.172,33.266 31.747,65.535 56.616,95.155 34.166,61.171 19.613,24.391 13.797,-11.807 29.813,27.597 60.658,64.812 100.033,92.583 74.651,66.941 54.146,38.106 39.803,8.089 54.259,31.382 75.028,52.655 99.619,69.437 80.323,50.883 65.11,29.456 55.355,7.143 69.553,27.704 90.35,45.732 114.286,58.246 102.832,44.94 91.381,31.631 79.927,18.325 c 9.432,6.041 22.915,12.993 32.347,19.033 27.301,-14.474 53.154,-25.801 88.566,-55.57 -3.617,-3.559 -16.933,-19.444 -20.551,-23.002 6.706,4.64 14.436,8.084 22.331,9.947 -4.476,-4.473 -8.953,-8.946 -13.43,-13.419 7.56,2.909 15.119,5.818 22.679,8.727 -3.852,-4.714 -7.703,-9.428 -11.555,-14.142 8.299,3.399 16.597,6.797 24.896,10.196 24.493,-17.154 58.809,-48.377 79.496,-76.889 -101.12,38.26 -205.394,76.241 -323.391,77.699 -2.548,0.032 -6.508,2.562 -4.275,4.055 6.163,49.401 33.353,95.088 61.105,143.733 0.022,0.024 1.229,1.62 1.252,1.643 C 22.425,72.928 3.668,36.73 0,0" /></g></g></g></g><g
           id="g636"><g
             id="g638" /><g
             id="g650"><g
               style="opacity:0.39999402"
               id="g648"
               clip-path="url(#clipPath642)"><g
                 id="g646"
                 transform="translate(1262.7437,1686.1292)"><path
                   id="path644"
                   style="fill:#ffffff;fill-opacity:1;fill-rule:nonzero;stroke:none"
                   d="m 0,0 c -20.66,-26.814 -38.931,-57.585 -44.608,-87.619 6.819,16.388 32.535,47.087 32.535,47.087 C -13.637,-33.335 -10.752,-17.831 0,0 m 30.027,-19.041 c 0,0 -18.945,-17.893 -29.61,-36.81 7.925,8.055 21.511,17.943 31.45,24.107 2.138,-1.665 2.138,-1.665 4.275,-3.331 -7.923,-9.471 -13.189,-12.469 -29.873,-35.144 21.375,19.731 29.264,25.163 36.147,28.344 3.076,-3.001 8.155,-6.875 8.155,-6.875 -5.49,-8.555 -16.49,-17.221 -23.23,-25.252 6.48,4.6 19.795,11.284 24.295,14.13 1.145,0.724 2.289,1.598 3.6,1.787 1.514,0.217 2.781,-0.458 3.908,-1.114 30.721,-17.874 58.018,-39.497 81.069,-64.215 -6.058,-4.363 -11.717,-9.159 -16.869,-14.297 7.267,3.288 14.534,6.576 21.801,9.863 l -12.282,-13.953 c 5.856,3.61 12.18,6.571 18.7,8.755 12.892,-11.194 25.784,-22.388 38.676,-33.583 -11.085,15.645 -23.599,30.403 -37.08,44.429 -23.76,24.724 -50.49,47.144 -78.08,68.701 -12.645,9.881 -30.499,26.649 -45.052,34.458" /></g></g></g></g><g
           transform="translate(892.0228,1700.2849)"
           id="g652"><path
             id="path654"
             style="fill:#603915;fill-opacity:1;fill-rule:nonzero;stroke:none"
             d="m 0,0 c 25.323,-30.751 32.105,-47.232 46.403,-74.411 -26.394,31.61 -41.233,46.13 -79.571,68.3 17.712,-15.522 31.128,-46.74 31.128,-46.74 -10.658,7.363 -26.22,14.772 -38.485,19.945 -17.558,-20.783 -26.813,-33.89 -44.372,-54.673 -52.657,-62.328 -106.427,-126.839 -122.82,-204.027 92.717,37.869 171.019,97.216 273.661,118.111 16.489,3.357 45.454,5.316 47.872,21.924 1.841,12.652 -15.478,35.023 -22.256,46.607 C 67.855,-64.453 44.725,-32.919 0,0" /></g><g
           id="g656"><g
             id="g658" /><g
             id="g670"><g
               style="opacity:0.39999402"
               id="g668"
               clip-path="url(#clipPath662)"><g
                 id="g666"
                 transform="translate(964.9111,1584.0092)"><path
                   id="path664"
                   style="fill:#000000;fill-opacity:1;fill-rule:nonzero;stroke:none"
                   d="m 0,0 c -17.898,31.076 -42.919,59.815 -72.691,84.943 28.16,-29.934 49.028,-64.093 61.176,-99.254 -22.776,36.52 -59.787,68.165 -103.537,88.816 29.573,-21.056 54.904,-46.19 74.367,-73.622 -18.383,20.685 -42.634,38.205 -69.859,50.54 22.317,-15.067 41.116,-33.748 54.688,-54.304 -17.644,17.998 -41.347,32.267 -67.169,40.451 13.653,-11.237 27.304,-22.477 40.957,-33.714 -10.372,4.334 -24.901,8.848 -35.272,13.182 -24.36,-19.426 -47.848,-35.441 -77.497,-71.638 4.198,-2.905 20.144,-16.385 24.342,-19.29 -7.435,3.428 -15.668,5.473 -23.785,5.907 5.207,-3.664 10.415,-7.329 15.623,-10.993 -7.971,1.541 -15.942,3.082 -23.912,4.623 4.633,-4.018 9.266,-8.037 13.9,-12.055 -8.786,1.897 -17.571,3.794 -26.357,5.691 -21.116,-21.599 -49.426,-59.052 -64.775,-91.324 92.943,56.595 189.046,113.48 305.154,136.313 2.506,0.493 5.964,3.742 3.497,4.831 -14.83,48.307 -48.942,89.097 -84.928,132.739 -0.026,0.019 0.027,-0.02 0,0 C -32.714,67.49 -10.125,36.082 0,0" /></g></g></g></g><g
           id="g672"><g
             id="g674" /><g
             id="g686"><g
               style="opacity:0.39999402"
               id="g684"
               clip-path="url(#clipPath678)"><g
                 id="g682"
                 transform="translate(917.4441,1619.4432)"><path
                   id="path680"
                   style="fill:#ffffff;fill-opacity:1;fill-rule:nonzero;stroke:none"
                   d="M 0,0 C 0,0 13.517,-13.041 18.637,-20.37 7.717,8.649 -15.752,36.125 -40.878,59.208 -27.115,43.316 -16.043,28.434 0,0 m -105.441,-7.914 c -23.388,-26.565 -45.777,-53.837 -64.829,-82.876 -10.809,-16.474 -20.535,-33.505 -28.695,-51.165 10.73,13.535 21.46,27.069 32.191,40.604 6.817,-1.005 13.578,-2.822 19.993,-5.372 l -14.585,11.734 c 7.749,-1.972 15.498,-3.945 23.247,-5.918 -5.991,4.206 -12.421,7.98 -19.168,11.247 18.352,28.905 41.442,55.482 68.571,78.929 0.996,0.861 2.125,1.766 3.657,1.822 1.326,0.049 2.61,-0.618 3.867,-1.135 4.942,-2.032 19.257,-6.308 26.463,-9.736 -8.071,6.815 -20.454,13.492 -27.384,21.056 0,0 4.323,4.796 6.825,8.355 7.351,-1.935 16.094,-5.94 40.669,-21.809 -20.471,19.663 -26.195,21.708 -35.687,29.749 1.813,2.053 1.813,2.053 3.626,4.106 C -55.786,17.312 -40.636,9.879 -31.394,3.256 -45.263,20.251 -67.116,34.719 -67.116,34.719 -80.084,24.271 -94.721,4.261 -105.441,-7.914" /></g></g></g></g><g
           transform="translate(844.9024,1036.1334)"
           id="g688"><path
             id="path690"
             style="fill:#efd23d;fill-opacity:1;fill-rule:nonzero;stroke:none"
             d="m 0,0 c 3.506,-2.013 7.442,-3.2 11.665,-3.262 83.44,-1.22 169.055,12.1 255.207,8.51 49.468,-2.061 98.179,-9.013 145.997,-19.521 0.106,-13.682 2.304,-44.904 16.924,-91.569 19.466,-62.132 46.545,-97.43 56.778,-108.984 10.177,-11.491 24.596,-20.018 5.415,-27.722 -19.016,-7.636 -118.921,-2.643 -160.84,6.786 -41.832,9.409 -138.647,32.642 -236.344,97.694 C -5.228,-71.463 -58.602,21.565 -58.602,21.565 -58.602,21.565 -36.908,2.502 0,0" /></g><g
           transform="translate(1111.7745,1041.3816)"
           id="g692"><path
             id="path694"
             style="fill:#9d6d29;fill-opacity:1;fill-rule:nonzero;stroke:none"
             d="m 0,0 c 28.955,-1.206 57.654,-4.165 86.109,-8.429 -2.722,-0.84 -5.437,-1.685 -8.157,-2.517 -21.279,-1.594 -43.447,-6.615 -63.361,-6.068 -39.818,1.095 -79.232,3.203 -118.561,4.153 -30.293,0.731 -60.514,2.093 -90.157,5.584 C -130.253,-4.265 -65.218,2.718 0,0" /></g><g
           id="g696"><g
             id="g698" /><g
             id="g710"><g
               style="opacity:0.19999701"
               id="g708"
               clip-path="url(#clipPath702)"><g
                 id="g706"
                 transform="translate(844.9014,1036.1338)"><path
                   id="path704"
                   style="fill:#000000;fill-opacity:1;fill-rule:nonzero;stroke:none"
                   d="m 0,0 c 3.507,-2.013 7.443,-3.2 11.666,-3.262 83.44,-1.221 169.055,12.099 255.207,8.51 49.469,-2.061 98.18,-9.013 145.997,-19.521 0.081,-8.778 1.028,-24.763 5.531,-47.392 -6.511,-3.41 -11.896,-10.295 -14.438,-21.647 -4.938,-22.053 6.434,-45.657 14.136,-62.581 11.249,-24.717 33.512,-51.959 49.501,-71.832 -21.296,4.576 -41.036,9.32 -57.116,11.988 0.462,4.086 -240.908,119.11 -265.69,130.142 -20.525,9.137 -88.104,12.5 -92.533,9.156 -13.34,-10.076 42.672,-59.723 70.178,-73.809 43.405,-22.228 66.232,-41.291 108.756,-55.14 82.58,-26.894 139.467,-39.438 252.472,-49.103 -30.664,-4.609 -114.877,0.261 -152.52,8.729 -41.832,9.409 -138.647,32.642 -236.344,97.693 C -5.227,-71.463 -58.6,21.565 -58.6,21.565 -58.6,21.565 -36.907,2.502 0,0" /></g></g></g></g><g
           id="g712"><g
             id="g714" /><g
             id="g726"><g
               style="opacity:0.19999701"
               id="g724"
               clip-path="url(#clipPath718)"><g
                 id="g722"
                 transform="translate(844.9014,1036.1338)"><path
                   id="path720"
                   style="fill:#000000;fill-opacity:1;fill-rule:nonzero;stroke:none"
                   d="m 0,0 c 3.507,-2.013 7.443,-3.2 11.666,-3.262 83.44,-1.221 169.055,12.099 255.207,8.51 49.472,-2.061 98.186,-9.014 146.007,-19.523 0.031,-3.299 0.181,-7.589 0.598,-12.902 -4.176,2.832 -0.641,13.126 -42.612,12.68 -60.552,-0.645 -308.414,-20.24 -339.99,-11.004 -18.763,5.487 -45.617,18.59 -67.003,13.684 C -50.981,8.289 -58.6,21.565 -58.6,21.565 -58.6,21.565 -36.907,2.502 0,0" /></g></g></g></g><g
           transform="translate(856.567,1032.8718)"
           id="g728"><path
             id="path730"
             style="fill:#612124;fill-opacity:1;fill-rule:nonzero;stroke:none"
             d="m 0,0 c 83.441,-1.221 169.055,12.099 255.208,8.51 34.455,-1.436 68.556,-5.291 102.28,-10.995 4.019,-6.549 5.006,-11.235 5.006,-11.235 l 13.642,-70.269 c 13.1,-67.476 62.542,-127.008 62.542,-127.008 0,0 -131.629,13.577 -209.375,41.046 -77.954,27.542 -118.767,55.096 -154.967,79.066 -36.508,24.175 -93.982,88.457 -93.982,88.457 L -2.353,0.244 C -1.571,0.153 -0.804,0.012 0,0" /></g><g
           id="g732"><g
             id="g734" /><g
             id="g746"><g
               style="opacity:0.19999701"
               id="g744"
               clip-path="url(#clipPath738)"><g
                 id="g742"
                 transform="translate(1148.7051,1023.9828)"><path
                   id="path740"
                   style="fill:#000000;fill-opacity:1;fill-rule:nonzero;stroke:none"
                   d="m 0,0 c 0.127,-0.008 0.252,-0.025 0.379,-0.033 7.407,-8.884 13.696,-19.06 18.53,-30.363 16.023,-37.459 10.798,-84.018 10.95,-129.121 C -33.532,-98.17 -86.427,-43.613 -160.44,-2.281 -106.604,-0.683 -52.735,3.506 0,0" /></g></g></g></g><g
           transform="translate(1148.7051,1023.9828)"
           id="g748"><path
             id="path750"
             style="fill:#b3353b;fill-opacity:1;fill-rule:nonzero;stroke:none"
             d="m 0,0 c 4.843,-0.322 9.643,-0.836 14.46,-1.268 3.653,-5.69 6.94,-11.737 9.708,-18.192 16.018,-37.355 16.526,-83.374 16.74,-128.326 -59.223,57.208 -123.785,105.953 -192.46,145.78 C -100.677,-0.255 -49.834,3.313 0,0" /></g><g
           id="g752"><g
             id="g754" /><g
             id="g766"><g
               style="opacity:0.14999402"
               id="g764"
               clip-path="url(#clipPath758)"><g
                 id="g762"
                 transform="translate(1120.672,1025.1713)"><path
                   id="path760"
                   style="fill:#000000;fill-opacity:1;fill-rule:nonzero;stroke:none"
                   d="m 0,0 c -0.137,-0.345 -0.279,-0.687 -0.365,-1.065 -0.864,-3.821 1.629,-6.902 3.885,-9.32 12.245,-13.123 22.985,-28.195 31.931,-44.832 -7.076,7.688 -14.275,15.203 -21.592,22.539 -11.401,11.433 -23.583,22.718 -38.822,26.515 -11.624,2.896 -49.484,3.029 -46.706,-9.033 0.557,-2.417 1.397,-4.609 2.911,-6.27 20.408,-22.384 46.378,-37.138 69.432,-56.225 11.412,-9.448 22.124,-19.972 32.842,-30.503 11.775,-11.569 23.572,-23.16 35.391,-34.774 0.012,-2.003 0.024,-4.007 0.034,-6.007 C 9.718,-91.767 -54.844,-43.021 -123.518,-3.195 -82.146,-1.771 -40.793,0.849 0,0" /></g></g></g></g><g
           id="g768"><g
             id="g770" /><g
             id="g782"><g
               style="opacity:0.19999701"
               id="g780"
               clip-path="url(#clipPath774)"><g
                 id="g778"
                 transform="translate(1101.4791,989.9818)"><path
                   id="path776"
                   style="fill:#ffffff;fill-opacity:1;fill-rule:nonzero;stroke:none"
                   d="m 0,0 c -4.78,-1.06 -9.784,-4.217 -9.509,-10.642 0.295,-6.91 6.356,-9.629 10.868,-12.046 10.429,-5.587 20.513,-11.877 30.172,-18.935 19.335,-14.128 37.003,-31.189 52.518,-50.797 -0.349,31.147 -0.845,63.838 -12.758,90.101 -2.419,5.334 -5.69,13.649 -11.006,15.564 -7.12,2.565 -9.688,-5.213 -7.159,-11.34 6.346,-15.371 11.185,-30.985 12.698,-48.908 -0.861,7.6 -17.203,27.029 -25.97,34.264 C 27.944,-2.911 16.156,3.583 0,0" /></g></g></g></g><g
           id="g784"><g
             id="g786" /><g
             id="g798"><g
               style="opacity:0.69999701"
               id="g796"
               clip-path="url(#clipPath790)"><g
                 id="g794"
                 transform="translate(1135.5269,978.2758)"><path
                   id="path792"
                   style="fill:#ffffff;fill-opacity:1;fill-rule:nonzero;stroke:none"
                   d="m 0,0 c -0.216,3.929 -9.583,6.937 -12.179,7.945 -5.052,1.961 -14.918,4.71 -16.185,2.23 -3.602,-3.549 17.772,-9.329 20.286,-10.31 -3.491,0.733 -10.617,1.986 -10.818,-0.627 -0.07,-2.904 5.993,-4.687 7.91,-5.61 4.234,-2.04 8.582,-3.828 13.025,-5.35 -1.203,0.23 -2.559,0.283 -3.17,-1.429 -0.977,-2.736 8.058,-6.203 11.129,-6.941 1.999,-0.481 4.567,-0.894 3.741,2.365 -0.718,2.835 -5.405,5.136 -7.512,5.877 2.418,-1.071 4.141,-0.352 4.117,1.316 -0.024,1.771 -2.087,3.099 -2.988,3.908 -2.61,2.344 -8.684,4.695 -11.919,5.759 C -3.708,-1.463 0.078,-1.417 0,0" /></g></g></g></g><g
           id="g800"><g
             id="g802" /><g
             id="g814"><g
               style="opacity:0.69999701"
               id="g812"
               clip-path="url(#clipPath806)"><g
                 id="g810"
                 transform="translate(1165.6978,987.6689)"><path
                   id="path808"
                   style="fill:#ffffff;fill-opacity:1;fill-rule:nonzero;stroke:none"
                   d="m 0,0 c -2.632,3.886 -6.537,6.494 -10.901,7.281 -0.589,0.107 -1.272,0.151 -1.778,-0.335 -0.509,-0.488 -0.627,-1.358 -0.436,-2.009 0.19,-0.651 0.621,-1.13 1.046,-1.582 1.841,-1.956 3.792,-3.775 5.841,-5.444 -0.603,0.582 -1.241,1.183 -2.05,1.318 -0.809,0.135 -1.833,-0.374 -2.131,-1.335 -0.286,-0.921 0.179,-1.791 0.643,-2.481 2.909,-4.329 6.542,-7.951 10.685,-10.649 0.826,-0.538 2.154,-0.856 2.669,0.233 0.291,0.615 0.089,1.308 -0.138,1.878 -1.662,4.17 -4.337,6.733 -7.39,9.339 C -1.812,-3.981 2.582,-3.813 0,0" /></g></g></g></g><g
           id="g816"><g
             id="g818" /><g
             id="g830"><g
               style="opacity:0.30000299"
               id="g828"
               clip-path="url(#clipPath822)"><g
                 id="g826"
                 transform="translate(976.6987,972.8488)"><path
                   id="path824"
                   style="fill:#000000;fill-opacity:1;fill-rule:nonzero;stroke:none"
                   d="m 0,0 c 3.339,9.492 12.783,14.306 21.285,17.801 47.151,19.38 206.04,27.817 224.142,-44.936 9.216,-37.041 14.373,-77.077 37.883,-103.67 -83.763,15.519 -168.444,31.462 -241.039,73.934 C 28.457,-48.788 14.794,-39.465 5.346,-25.529 0.548,-18.45 -3.146,-8.942 0,0 m -122.485,60.267 -17.293,-2.672 c 0,0 57.474,-64.282 93.982,-88.457 36.2,-23.97 77.013,-51.524 154.967,-79.066 77.747,-27.469 209.375,-41.046 209.375,-41.046 0,0 -49.442,59.532 -62.542,127.008 l -13.642,70.269 c 0,0 -0.987,4.687 -5.006,11.235 -33.723,5.704 -67.824,9.559 -102.28,10.995 -86.153,3.589 -171.767,-9.731 -255.208,-8.51 -0.804,0.012 -1.571,0.153 -2.353,0.244" /></g></g></g></g><g
           id="g832"><g
             id="g834" /><g
             id="g846"><g
               style="opacity:0.39999402"
               id="g844"
               clip-path="url(#clipPath838)"><g
                 id="g842"
                 transform="translate(1341.0244,804.5499)"><path
                   id="path840"
                   style="fill:#ffffff;fill-opacity:1;fill-rule:nonzero;stroke:none"
                   d="m 0,0 c -32.419,-4.726 -59.977,0.065 -90.582,4.358 -37.494,5.26 -74.959,10.525 -110.642,20.794 -51.257,14.751 -98.624,39.776 -145.999,64.846 100.166,-46.453 208.801,-74.717 323.681,-78.406 -1.9,0.72 -16.241,24.374 -19.444,29.363 -6.355,9.901 -12.179,17.764 -16.778,29.02 -9.197,22.511 -14.919,47.693 -16.257,74.305 C -67.288,91.668 -31.574,31.22 0,0" /></g></g></g></g><g
           id="g848"><g
             id="g850" /><g
             id="g862"><g
               style="opacity:0.69999701"
               id="g860"
               clip-path="url(#clipPath854)"><g
                 id="g858"
                 transform="translate(1338.8258,806.7725)"><path
                   id="path856"
                   style="fill:#ffffff;fill-opacity:1;fill-rule:nonzero;stroke:none"
                   d="m 0,0 c -44.382,-6.344 -84.421,1.865 -125.673,9.733 -10.703,2.042 -21.403,4.082 -31.896,6.718 C -45.12,2.084 -20.62,6.818 -18.537,10.044 c 0,0 -9.456,19.373 -11.23,22.206 -4.967,7.931 -12.744,19.723 -14.633,29.617 5.256,-9.232 16.504,-26.298 20.494,-31.693 C -15.958,19.427 -9.448,9.137 0,0" /></g></g></g></g><g
           transform="translate(752.042,1082.3325)"
           id="g864"><path
             id="path866"
             style="fill:#4d3f82;fill-opacity:1;fill-rule:nonzero;stroke:none"
             d="M 0,0 C 9.445,15.882 23.583,27.593 37.698,39.517 29.765,25.062 19.573,10.632 16.431,-5.316 c 5.02,-3.72 11.191,-7.734 16.21,-11.454 0.97,-0.718 2.019,-1.566 2.18,-2.763 0.293,-2.187 -2.286,-5.031 -0.37,-6.128 -6.266,4.008 -12.837,7.539 -19.637,10.551 -0.978,0.433 -2.045,0.864 -3.087,0.627 C 10.743,-14.708 9.992,-15.482 9.314,-16.23 -1.418,-28.083 -9.084,-42.69 -12.739,-58.257 -14.498,-46.394 -13.144,-24.634 0,0" /></g><g
           transform="translate(768.4734,1077.0167)"
           id="g868"><path
             id="path870"
             style="fill:#efd23d;fill-opacity:1;fill-rule:nonzero;stroke:none"
             d="m 0,0 c 0,0 26.769,-19.814 131.786,36.729 105.018,56.543 196.356,95.688 278.996,91.338 82.64,-4.349 162.38,-25.38 221.822,-65.609 59.443,-40.227 73.254,-85.087 73.254,-85.087 0,0 -233.027,-50.53 -437.183,-36.335 C 116.978,-48.416 41.816,-61.478 0,0" /></g><g
           id="g872"><g
             id="g874" /><g
             id="g886"><g
               style="opacity:0.10000598"
               id="g884"
               clip-path="url(#clipPath878)"><g
                 id="g882"
                 transform="translate(900.2595,1113.7454)"><path
                   id="path880"
                   style="fill:#000000;fill-opacity:1;fill-rule:nonzero;stroke:none"
                   d="m 0,0 c 105.017,56.543 196.356,95.688 278.996,91.339 2.205,-0.117 4.399,-0.292 6.599,-0.432 C 246.037,84.866 205.539,76.552 183.503,65.378 109.85,28.03 77.264,-12.672 48.958,-69.643 c 131.586,-15.222 434.946,18.416 487.245,30.143 -16.482,33.391 -40.889,62.642 -70.245,85.534 12.235,-6.129 23.897,-12.884 34.86,-20.304 59.443,-40.228 73.254,-85.088 73.254,-85.088 0,0 -233.028,-50.529 -437.183,-36.334 -151.697,10.548 -226.859,-2.515 -268.675,58.963 0,0 26.769,-19.814 131.786,36.729" /></g></g></g></g><g
           id="g888"><g
             id="g890" /><g
             id="g902"><g
               style="opacity:0.30000299"
               id="g900"
               clip-path="url(#clipPath894)"><g
                 id="g898"
                 transform="translate(1156.2948,1192.4171)"><path
                   id="path896"
                   style="fill:#ffffff;fill-opacity:1;fill-rule:nonzero;stroke:none"
                   d="m 0,0 c 115.147,5.704 196.658,-36.627 247.743,-109.748 -61.376,-5.887 -95.772,-9.187 -157.147,-15.074 C 77.21,-73.946 44.221,-28.495 0,0" /></g></g></g></g><g
           id="g904"><g
             id="g906" /><g
             id="g918"><g
               style="opacity:0.69999701"
               id="g916"
               clip-path="url(#clipPath910)"><g
                 id="g914"
                 transform="translate(1422.0963,1076.0682)"><path
                   id="path912"
                   style="fill:#ffffff;fill-opacity:1;fill-rule:nonzero;stroke:none"
                   d="m 0,0 c -67.462,-6.961 -135.084,-12.364 -202.796,-16.203 57.504,8.019 114.594,19.002 170.968,32.891 -2.849,18.222 -25.115,42.356 -25.115,42.356 0,0 44.604,-26.496 56.943,-59.044" /></g></g></g></g><g
           id="g920"><g
             id="g922" /><g
             id="g934"><g
               style="opacity:0.14999402"
               id="g932"
               clip-path="url(#clipPath926)"><g
                 id="g930"
                 transform="translate(602.19,1530.8906)"><path
                   id="path928"
                   style="fill:#ffffff;fill-opacity:1;fill-rule:nonzero;stroke:none"
                   d="m 0,0 c -57.808,-49.413 -47.074,-144.236 -39.092,-219.866 -15.37,4.806 -50.903,16.309 -66.273,21.115 -1.285,-5.615 -2.569,-11.231 -3.853,-16.846 16.729,-9.688 33.457,-19.374 50.186,-29.062 -19.753,-1.485 -39.506,-2.971 -59.259,-4.457 0,0 9.251,-45.565 12.476,-41.796 0,0 56.156,-4.653 78.618,-6.024 -28.2,-7.795 -58.507,-12.311 -66.62,-15.097 4.507,-10.242 14.106,-32.823 18.613,-43.065 14.733,2.467 60.201,6.34 82.149,7.385 28.125,-72.338 52.159,-143.299 98.515,-205.547 -12.526,27.201 -8.798,59.953 4.6,86.735 13.398,26.782 35.495,48.285 59.38,66.349 -90.905,117.02 -64.626,243.914 -64.626,243.914 -4.515,11.237 -46.158,-3.487 -46.158,-3.487 C 67.644,-32.482 149.797,31.555 254.675,79.103 172.978,107.613 40.87,34.935 0,0" /></g></g></g></g><g
           id="g936"><g
             id="g938" /><g
             id="g950"><g
               style="opacity:0.14999402"
               id="g948"
               clip-path="url(#clipPath942)"><g
                 id="g946"
                 transform="translate(1038.5939,1519.6884)"><path
                   id="path944"
                   style="fill:#ffffff;fill-opacity:1;fill-rule:nonzero;stroke:none"
                   d="m 0,0 c -14.78,-5.486 -28.879,-12.805 -41.87,-21.736 18.84,0.604 36.875,-8.962 50.422,-22.069 13.546,-13.107 23.285,-29.568 32.73,-45.88 4.894,35.043 38.063,58.028 68.196,76.574 -9.348,0.711 -18.468,4.206 -25.897,9.925 10.969,47.912 24.041,99.369 61.801,130.833 -46.037,8.51 -93.867,7.194 -139.367,-3.838 11.95,28.428 71.756,78.515 100.94,93.191 -1.005,6.508 -12.304,14.252 -12.304,14.252 0,0 -15.095,-6.273 -21.024,-9.139 -31.789,-15.37 -55.662,-20.611 -97.861,-42.678 23.835,33.056 49.191,54.527 81.626,75.272 -2.925,4.029 -5.85,8.058 -8.775,12.086 -25.211,-16.014 -50.494,-30.159 -71.401,-51.489 8.826,26.666 23.019,47.412 38.34,70.953 -3.646,3.811 -7.292,7.622 -10.939,11.433 -2.386,2.494 -43.674,-63.053 -46.664,-69.186 -11.523,-23.633 -26.005,-55.405 -26.231,-82.207 0,0 24.794,-39.402 34.592,-57.745 C -18.767,60.62 -7.394,30.792 0,0" /></g></g></g></g><g
           id="g952"><g
             id="g954" /><g
             id="g966"><g
               style="opacity:0.14999402"
               id="g964"
               clip-path="url(#clipPath958)"><g
                 id="g962"
                 transform="translate(1527.0171,1572.7773)"><path
                   id="path960"
                   style="fill:#ffffff;fill-opacity:1;fill-rule:nonzero;stroke:none"
                   d="m 0,0 c -40.888,37.353 -96.481,58.154 -151.846,56.816 70.95,-44.605 123.753,-117.217 144.319,-198.462 -23.146,3.77 -47.114,2.404 -69.682,-3.971 27.315,-26.477 36.991,-67.354 32.991,-105.185 -3.999,-37.83 -20.069,-73.293 -38.047,-106.818 -8.543,-15.933 -18.122,-32.209 -33.268,-42.08 33.991,-17.062 64.467,-41.087 88.994,-70.155 28.527,40.406 44.401,65.768 59.583,112.842 0,0 49.047,3.093 61.773,7.442 2.251,5.956 -0.077,34.765 2.174,40.721 -15.731,2.508 -38.944,-2.176 -54.676,0.333 21.072,10.039 42.692,18.927 64.731,26.613 -1.752,14.809 -2.718,29.711 -2.89,44.622 -19.89,-0.616 -39.741,-2.462 -59.403,-5.527 21.782,13.009 43.565,26.017 65.347,39.026 -4.956,13.868 -7.87,28.464 -8.62,43.172 -14.189,-6.486 -13.93,-7.227 -28.294,-13.297 2.3,14.506 0.608,40.361 -6.926,63.171 C 52.002,-67.571 34.788,-31.781 0,0" /></g></g></g></g></g></g></g></svg>