<?xml version="1.0" encoding="UTF-8"?>
<svg viewBox="0 0 283.29623 237.91023" xmlns="http://www.w3.org/2000/svg" xmlns:xlink="http://www.w3.org/1999/xlink">
 <defs>
  <linearGradient id="c">
   <stop stop-color="#f2f2f2" offset="0"/>
   <stop stop-color="#e5e5e5" offset="1"/>
  </linearGradient>
  <linearGradient id="m" x1="371.44" x2="643" y1="456.04" y2="344.83" gradientTransform="matrix(1 0 0 .90119 -6.0609 57.753)" gradientUnits="userSpaceOnUse">
   <stop stop-color="#d9d9d9" offset="0"/>
   <stop stop-color="#e6e6e6" stop-opacity="0" offset="1"/>
  </linearGradient>
  <linearGradient id="b">
   <stop stop-color="#dadada" offset="0"/>
   <stop stop-color="#dadada" stop-opacity="0" offset="1"/>
  </linearGradient>
  <linearGradient id="j" x1="303.3" x2="222.57" y1="540.21" y2="275.55" gradientUnits="userSpaceOnUse">
   <stop stop-color="#737373" offset="0"/>
   <stop stop-color="#737373" stop-opacity="0" offset="1"/>
  </linearGradient>
  <linearGradient id="a">
   <stop stop-color="#cdcdcd" offset="0"/>
   <stop stop-color="#fdfdfd" offset="1"/>
  </linearGradient>
  <linearGradient id="l" x1="739.61" x2="252.83" y1="-3.3526" y2="102.34" gradientUnits="userSpaceOnUse" xlink:href="#b"/>
  <linearGradient id="k" x1="178.65" x2="278.28" y1="323.19" y2="321.17" gradientUnits="userSpaceOnUse" xlink:href="#c"/>
  <linearGradient id="i" x1="229.49" x2="145.59" y1="252.3" y2="117.79" gradientUnits="userSpaceOnUse" xlink:href="#a"/>
  <linearGradient id="h" x1="356.08" x2="344.77" y1="536.95" y2="468.77" gradientUnits="userSpaceOnUse" xlink:href="#a"/>
  <linearGradient id="g" x1="434.3" x2="400.6" y1="538.28" y2="496.35" gradientUnits="userSpaceOnUse" xlink:href="#a"/>
  <pattern id="d" width="10" height="10" patternTransform="matrix(2.2985 0 0 2.6968 235.98 206.72)" patternUnits="userSpaceOnUse">
   <path d="m2.717.81a.15,.15 0 1,0 -.3,0 .15,.15 0 1,0 .3,0" fill="#fff"/>
   <path d="m3.198,2.33a.15,.15 0 1,0 -.3,0 .15,.15 0 1,0 .3,0" fill="#fff"/>
   <path d="m4.568,2.415a.15,.15 0 1,0 -.3,0 .15,.15 0 1,0 .3,0" fill="#fff"/>
   <path d="m1.994,3.029a.15,.15 0 1,0 -.3,0 .15,.15 0 1,0 .3,0" fill="#fff"/>
   <path d="m6.23,1.363a.15,.15 0 1,0 -.3,0 .15,.15 0 1,0 .3,0" fill="#fff"/>
   <path d="m5.969,4.413a.15,.15 0 1,0 -.3,0 .15,.15 0 1,0 .3,0" fill="#fff"/>
   <path d="m4.455,4.048a.15,.15 0 1,0 -.3,0 .15,.15 0 1,0 .3,0" fill="#fff"/>
   <path d="m5.691,3.045a.15,.15 0 1,0 -.3,0 .15,.15 0 1,0 .3,0" fill="#fff"/>
   <path d="m4.935,5.527a.15,.15 0 1,0 -.3,0 .15,.15 0 1,0 .3,0" fill="#fff"/>
   <path d="m2.817,5.184a.15,.15 0 1,0 -.3,0 .15,.15 0 1,0 .3,0" fill="#fff"/>
   <path d="m8.115,1.448a.15,.15 0 1,0 -.3,0 .15,.15 0 1,0 .3,0" fill="#fff"/>
   <path d="m7.197,5.049a.15,.15 0 1,0 -.3,0 .15,.15 0 1,0 .3,0" fill="#fff"/>
   <path d="m4.49.895a.15,.15 0 1,0 -.3,0 .15,.15 0 1,0 .3,0" fill="#fff"/>
   <path d="m7.275.34a.15,.15 0 1,0 -.3,0 .15,.15 0 1,0 .3,0" fill="#fff"/>
   <path d="m9.703,1.049a.15,.15 0 1,0 -.3,0 .15,.15 0 1,0 .3,0" fill="#fff"/>
   <path d="m7.156,2.689a.15,.15 0 1,0 -.3,0 .15,.15 0 1,0 .3,0" fill="#fff"/>
   <path d="m9.059,2.689a.15,.15 0 1,0 -.3,0 .15,.15 0 1,0 .3,0" fill="#fff"/>
   <path d="m9.465,4.407a.15,.15 0 1,0 -.3,0 .15,.15 0 1,0 .3,0" fill="#fff"/>
   <path d="m7.97,3.87a.15,.15 0 1,0 -.3,0 .15,.15 0 1,0 .3,0" fill="#fff"/>
   <path d="m8.42,5.948a.15,.15 0 1,0 -.3,0 .15,.15 0 1,0 .3,0" fill="#fff"/>
   <path d="m8.123,7.428a.15,.15 0 1,0 -.3,0 .15,.15 0 1,0 .3,0" fill="#fff"/>
   <path d="m9.492,8.072a.15,.15 0 1,0 -.3,0 .15,.15 0 1,0 .3,0" fill="#fff"/>
   <path d="m8.356,9.315a.15,.15 0 1,0 -.3,0 .15,.15 0 1,0 .3,0" fill="#fff"/>
   <path d="m9.832,9.475a.15,.15 0 1,0 -.3,0 .15,.15 0 1,0 .3,0" fill="#fff"/>
   <path d="m9.838,6.186a.15,.15 0 1,0 -.3,0 .15,.15 0 1,0 .3,0" fill="#fff"/>
   <path d="m3.529,6.296a.15,.15 0 1,0 -.3,0 .15,.15 0 1,0 .3,0" fill="#fff"/>
   <path d="m3.021,8.204a.15,.15 0 1,0 -.3,0 .15,.15 0 1,0 .3,0" fill="#fff"/>
   <path d="m4.74,8.719a.15,.15 0 1,0 -.3,0 .15,.15 0 1,0 .3,0" fill="#fff"/>
   <path d="m3.331,9.671a.15,.15 0 1,0 -.3,0 .15,.15 0 1,0 .3,0" fill="#fff"/>
   <path d="m5.884,7.315a.15,.15 0 1,0 -.3,0 .15,.15 0 1,0 .3,0" fill="#fff"/>
   <path d="m6.857,6.513a.15,.15 0 1,0 -.3,0 .15,.15 0 1,0 .3,0" fill="#fff"/>
   <path d="m5.88,9.67a.15,.15 0 1,0 -.3,0 .15,.15 0 1,0 .3,0" fill="#fff"/>
   <path d="m6.685,8.373a.15,.15 0 1,0 -.3,0 .15,.15 0 1,0 .3,0" fill="#fff"/>
   <path d="m4.52,7.154a.15,.15 0 1,0 -.3,0 .15,.15 0 1,0 .3,0" fill="#fff"/>
   <path d="m.772,7.25a.15,.15 0 1,0 -.3,0 .15,.15 0 1,0 .3,0" fill="#fff"/>
   <path d="m.981,5.679a.15,.15 0 1,0 -.3,0 .15,.15 0 1,0 .3,0" fill="#fff"/>
   <path d="m1.407,8.519a.15,.15 0 1,0 -.3,0 .15,.15 0 1,0 .3,0" fill="#fff"/>
   <path d="m2.139,6.877a.15,.15 0 1,0 -.3,0 .15,.15 0 1,0 .3,0" fill="#fff"/>
   <path d="m.524,3.181a.15,.15 0 1,0 -.3,0 .15,.15 0 1,0 .3,0" fill="#fff"/>
   <path d="m1.316,1.664a.15,.15 0 1,0 -.3,0 .15,.15 0 1,0 .3,0" fill="#fff"/>
   <path d="m1.301.093a.15,.15 0 1,0 -.3,0 .15,.15 0 1,0 .3,0" fill="#fff"/>
   <path d="m1.301,10.093a.15,.15 0 1,0 -.3,0 .15,.15 0 1,0 .3,0" fill="#fff"/>
   <path d="m1.452,4.451a.15,.15 0 1,0 -.3,0 .15,.15 0 1,0 .3,0" fill="#fff"/>
   <path d="m3.197,3.763a.15,.15 0 1,0 -.3,0 .15,.15 0 1,0 .3,0" fill="#fff"/>
  </pattern>
  <radialGradient id="f" cx="528.35" cy="345.96" r="293.95" gradientTransform="matrix(1 0 0 .76976 0 92.602)" gradientUnits="userSpaceOnUse" xlink:href="#c"/>
  <radialGradient id="e" cx="927.84" cy="462.48" r="269.19" gradientTransform="matrix(-.41163 -.05307 .02846 -.22078 736.01 668.92)" gradientUnits="userSpaceOnUse" xlink:href="#b"/>
 </defs>
 <g transform="matrix(.41529 0 0 .41529 -61.445 -29.865)">
  <path transform="matrix(1.0412 0 0 .84593 -89.696 113.14)" d="m824.33 402.2c0 124.97-133.44 226.27-298.04 226.27s-298.04-101.31-298.04-226.27 133.44-226.27 298.04-226.27 298.04 101.31 298.04 226.27z" fill="#666" fill-rule="evenodd" opacity=".3"/>
  <path transform="matrix(1.081 0 0 .90091 -56.566 48.557)" d="m820.24 402.2c0 124.97-131.61 226.27-293.95 226.27s-293.95-101.31-293.95-226.27 131.61-226.27 293.95-226.27 293.95 101.31 293.95 226.27z" fill="#cdcdcd" fill-rule="evenodd"/>
  <path transform="matrix(1.0738 0 0 .89698 -50.673 43.97)" d="m820.24 402.2c0 124.97-131.61 226.27-293.95 226.27s-293.95-101.31-293.95-226.27 131.61-226.27 293.95-226.27 293.95 101.31 293.95 226.27z" fill="#fff" fill-rule="evenodd"/>
  <path transform="matrix(1.032 0 0 .86206 -28.672 58.016)" d="m820.24 402.2c0 124.97-131.61 226.27-293.95 226.27s-293.95-101.31-293.95-226.27 131.61-226.27 293.95-226.27 293.95 101.31 293.95 226.27z" fill="url(#f)" fill-rule="evenodd"/>
  <path d="m194.87 429.84c-4.7408 32.968 100.65 10.463 99.379 39.675-3.3144 76.334 151.95 140.53 288.51 101.34 37.647-10.803 92.778-30.303 122.53-65.87 24.664-29.483 49.341-73.638 35.809-109.62-21.865-58.133-88.846-88.372-160.24-95.084-72.567-6.823-166.94 29.148-246.06 58.199-49.149 18.047-134.89 36.326-139.93 71.353z" fill="#737373" fill-rule="evenodd" opacity=".2"/>
  <path d="m779.8 197.54c0 78.62-519.19 78.62-519.19 0 0 393.1 519.19 393.1 519.19 0z" fill="#f5f5f5" fill-rule="evenodd"/>
  <path d="m779.8 197.54c0 78.62-519.19 78.62-519.19 0 0 393.1 519.19 393.1 519.19 0z" fill="url(#m)" fill-rule="evenodd"/>
  <path transform="matrix(.95533 0 0 .74777 23.211 145.82)" d="m791.96 75.919c0 96.515-121.66 174.76-271.73 174.76s-271.73-78.241-271.73-174.76 121.66-174.76 271.73-174.76 271.73 78.241 271.73 174.76z" fill="#e6e6e6" fill-rule="evenodd"/>
  <path transform="matrix(.95533 0 0 .74198 23.211 145.25)" d="m791.96 75.919c0 96.515-121.66 174.76-271.73 174.76s-271.73-78.241-271.73-174.76 121.66-174.76 271.73-174.76 271.73 78.241 271.73 174.76z" fill="#fff" fill-rule="evenodd"/>
  <path transform="matrix(.92559 0 0 .69574 38.682 146.74)" d="m791.96 75.919c0 96.515-121.66 174.76-271.73 174.76s-271.73-78.241-271.73-174.76 121.66-174.76 271.73-174.76 271.73 78.241 271.73 174.76z" fill="url(#l)" fill-rule="evenodd"/>
  <path d="m525.28 143.6c-115.41 0-211.81 45.096-235.06 105.25 39.116 42.594 127.35 72.281 229.97 72.281 108.89 0 201.6-33.449 236.59-80.25-28.361-56.121-121.25-97.281-231.5-97.281z" fill="#f68e56" fill-rule="evenodd"/>
  <path d="m527.1 190.07c-98.749 0-181.66 35.954-204.81 84.531 46.04 28.34 117.57 46.531 197.91 46.531 86.513 0 162.81-21.13 208.06-53.281-27.325-45.116-107.05-77.781-201.16-77.781z" fill="#fbaf5d" fill-rule="evenodd"/>
  <path d="m230.81 228.35c-15.275 0.065-31.46 5.3397-41.312 16.75-38.551 44.647 6.6006 99.822 35.719 127.28 23.476 22.139 75.081 59.054 103.56 32.188-8.799-10.355-16.919-21.625-24.281-33.812-12.872-1.6947-25.863-3.7484-32.281-9.9688-21.93-21.254-65.944-43.068-46.969-82.312 6.3994-13.235 31.239-7.1137 40.75-14.406-1.4219-8.3936-2.5372-17.018-3.4062-25.875-7.3326-6.4503-19.248-9.897-31.781-9.8438z" fill="url(#k)" fill-rule="evenodd"/>
  <path d="m249.5 242.95c-13.703 0.046-29.559 6.7823-28.281 17.375 1.7945 14.871 34.502 14.645 44.781 3.75-0.99407-5.8682-1.8365-11.843-2.5625-17.938-3.5539-2.191-8.5753-3.2055-13.938-3.1875zm-52.594 28.656c-0.58715 0.0437-1.2192 0.16135-1.9062 0.375-33.373 10.378 5.9958 75.213 30.219 100.41 22.837 23.752 88.601 61.54 103.57 32.188 7.1099-13.941-31.221-4.9521-44.498-12.827-30.643-18.174-57.927-49.7-75.228-75.923-8.0567-12.211-0.21761-45.107-12.156-44.219z" fill="url(#j)" fill-rule="evenodd" opacity=".2"/>
  <path transform="matrix(.99663 .08198 -.09126 1.1095 21.843 -125.81)" d="m832.21 527.18c-35.326 27.075-205.25 9.3589-281.01 18.342-47.086 5.5831-54.233 27.723-55.465 29.276-16.3 20.551-57.534 35.496-98.749 35.496-53 0-95.964-23.97-95.964-53.538s42.965-53.538 95.964-53.538c39.836 0 79.691 13.121 97.031 32.195 4.5055 4.9558 20.593-18.467 333.53-26.281 18.699-0.46693 4.6608 18.049 4.6608 18.049z" fill="#a7a7a7" fill-rule="evenodd"/>
  <path d="m803.14 523.29c-37.678 27.142-205.41-6.4436-281.74-2.6885-47.437 2.334-56.581 26.312-57.95 27.934-18.121 21.464-60.58 34.665-101.66 31.286-52.821-4.345-93.454-34.461-90.755-67.266s47.706-55.876 100.53-51.531c39.702 3.2658 78.225 21.091 93.766 43.674 4.038 5.8677 22.209-18.8 334.81-1.8141 18.679 1.015 2.998 20.406 2.998 20.406z" fill="url(#e)" fill-rule="evenodd"/>
  <path d="m356.94 462.5c-44.671 0.56009-80.886 20.843-85.531 49 9.2384-28.038 50.775-46.696 98.75-42.75 39.702 3.2658 78.209 21.073 93.75 43.656 4.038 5.8677 22.214-18.798 334.81-1.8125 7.0046 0.38061 9.1765 3.349 9.1562 6.9062 2.4035-5.5199 2.9123-12.047-7.7188-12.625-312.6-16.986-330.77 7.6802-334.81 1.8125-15.541-22.583-54.079-40.39-93.781-43.656-4.952-0.40735-9.8388-0.59126-14.625-0.53125z" fill="#e6e6e6" fill-rule="evenodd"/>
  <path d="m805.07 508.06c0.4853 5.8985-3.0958 10.383-3.0958 10.383-37.88 26.627-206.52-6.3203-283.26-2.6365-47.691 2.2896-56.87 25.816-58.247 27.407-18.217 21.057-60.904 34.002-102.2 30.687-39.991-3.21-73.048-20.735-85.768-42.95 10.911 24.047 45.462 43.477 87.779 46.874 41.295 3.3147 83.982-9.6306 102.2-30.687 1.3768-1.5914 10.556-25.117 58.247-27.407 76.73-3.6838 245.38 29.263 283.26 2.6365 0 0 7.4294-9.1053 1.0852-14.307z" fill="#9a9a9a" fill-rule="evenodd"/>
  <path d="m356.94 462.5c-44.671 0.56009-92.623 31.834-73.929 56.612 6.3889 8.4684 4.5021-8.9985 25.542-18.984 28.466-13.51 68.799-9.8495 75.892 0.0507 55.335 77.238 10.818-19.824 311.14 10.993 12.35 1.2673-54.544 17.52 83.434 17.099 21.026-0.0641 28.874-14.329 28.854-10.771 2.4035-5.5199 2.9123-12.047-7.7188-12.625-312.6-16.986-328.46 9.2906-333.8 4.583-57.347-56.292-67.538-44.591-109.42-46.958z" fill="#fff" fill-rule="evenodd" opacity=".3"/>
  <path d="m793.35 540.63c-13.464-0.92473-27.239 4.5679-44.836 5.4162 0 0 7.4372-11.452 6.0739-11.386-67.537 3.276-185.38-19.816-245.03-16.649-47.781 2.5365-59.503 25.063-60.882 26.826-18.252 23.327-47.887 36.152-89.26 32.48-40.066-3.556-89.348-76.004-85.93-37.478 10.932 26.639 45.548 48.164 87.945 51.927 41.373 3.672 87.676-6.1231 105.93-29.45 1.3794-1.7629 23.708-34.391 63.913-29.856 54.506 6.1476 147.17 21.274 209.67 18.794 1.187-0.0471-13.294 10.001-12.129 9.941 23.582-1.2145 48.069-5.6117 66.547-10.157 2.3894-1.4865 9.7387-8.9674-2.0145-10.408z" fill="#9a9a9a" fill-rule="evenodd" opacity=".3"/>
  <path d="m661.41 336.91c9.6259-15.894 28.791-35.33 34.64-9.9662-30.507 133.48-108.06 128.41-131.29 150.87 19.823-25.037 87.704-51.115 96.647-140.91z" fill="#fff" opacity=".7"/>
  <path d="m217.37 241.01c-5.695-0.0396-9.7869-9.9221 5.4486-10.019 51.552-0.32773 33.407 26.376 37.925 32.303-6.8952-4.7642 0.42571-21.979-43.373-22.284z" fill="#fff" opacity=".7"/>
  <path d="m362.31 230.36c0 33.138-30.95 15.976-30.95 5.498 0-33.067 136.91-64.483 136.91-69.814 0 15.807-105.96 31.178-105.96 64.316z" fill="#fff" opacity=".7"/>
  <path d="m626.03 213.61c0-11.766 90.405 1.3683 90.405 13.298 0 31.749-165.03 69.686-165.03 81.828 0-14.215 169.81-95.126 74.62-95.126z" fill="#fff" opacity=".7"/>
  <path transform="matrix(.43912 .01739 -.01739 .43912 244.01 401.98)" d="m317.19 287.04c-8.8893 8.2832-106.78 30.845-118.4 27.288s-80.104-77.053-82.833-88.893 26.678-107.9 35.568-116.18 106.78-30.845 118.4-27.288 80.104 77.053 82.833 88.893-26.678 107.9-35.568 116.18z" fill="url(#i)" fill-rule="evenodd"/>
  <path transform="matrix(.43912 .01739 -.01739 .43912 244.01 401.98)" d="m317.19 287.04c-8.8893 8.2832-106.78 30.845-118.4 27.288s-80.104-77.053-82.833-88.893 26.678-107.9 35.568-116.18 106.78-30.845 118.4-27.288 80.104 77.053 82.833 88.893-26.678 107.9-35.568 116.18z" fill="url(#d)" fill-rule="evenodd"/>
  <path d="m387.61 460.33c-0.23235 0.0149-0.40063 0.0532-0.5625 0.0937-5.18 1.2964-36.939 31.991-38.406 37.125s9.2561 47.975 12.969 51.812c3.419 3.5342 41.57 14.46 51.332 15.098l-9.0874-48.499 35.365-38.891-1.1976-3.6242c-6.7905-4.2373-43.58-13.554-50.411-13.115z" fill="url(#h)" fill-rule="evenodd"/>
  <path d="m438.16 474.76 0.1875 0.59375-36.375 40.406 9.7188 48.625c0.83846 0.0547 1.4965 0.04 1.9062-0.0625 5.18-1.2964 36.908-31.991 38.375-37.125s-9.2561-47.943-12.969-51.781c-0.18531-0.19156-0.47487-0.42607-0.84375-0.65625z" fill="url(#g)" fill-rule="evenodd"/>
  <path transform="matrix(.37641 -.22682 .22682 .37641 266.83 490.31)" d="m317.19 287.04c-8.8893 8.2832-106.78 30.845-118.4 27.288s-80.104-77.053-82.833-88.893 26.678-107.9 35.568-116.18 106.78-30.845 118.4-27.288 80.104 77.053 82.833 88.893-26.678 107.9-35.568 116.18z" fill="url(#d)" fill-rule="evenodd"/>
 </g>
</svg>
